<?xml version="1.0" encoding="UTF-8" standalone="no"?>
<!DOCTYPE svg PUBLIC "-//W3C//DTD SVG 1.1//EN" "http://www.w3.org/Graphics/SVG/1.1/DTD/svg11.dtd">
<svg width="100%" height="100%" viewBox="0 0 743 395" version="1.1" xmlns="http://www.w3.org/2000/svg" xmlns:xlink="http://www.w3.org/1999/xlink" xml:space="preserve" xmlns:serif="http://www.serif.com/" style="fill-rule:evenodd;clip-rule:evenodd;stroke-linejoin:round;stroke-miterlimit:2;">
    <g id="Artboard1" transform="matrix(1,0,0,1,-378.947,-391.542)">
        <rect x="378.947" y="391.542" width="742.106" height="394.548" style="fill:none;"/>
        <g id="Layer-1" serif:id="Layer 1" transform="matrix(4.16667,0,0,4.16667,0.946549,0.541549)">
            <g transform="matrix(1,0,0,1,212.416,130.118)">
                <path d="M0,0.397L0,-9.023L10.873,-9.023L10.873,24.618C7.563,24.618 4.271,24.663 0.984,24.55C0.65,24.538 0.099,23.588 0.076,23.055C-0.024,20.694 0.033,18.326 -0.445,15.803C-1.22,16.656 -1.994,17.508 -2.77,18.361C-6.422,22.376 -10.964,24.589 -16.38,24.787C-21.679,24.98 -27.021,25.207 -32.024,22.915C-41.855,18.41 -46.988,10.605 -48.076,-0.035C-48.313,-2.351 -48.518,-4.685 -48.993,-6.958C-49.525,-9.505 -51.158,-10.836 -53.325,-10.899C-55.514,-10.962 -57.222,-9.747 -57.981,-7.312C-58.481,-5.71 -58.704,-4.021 -59.133,-1.983L-69.261,-1.983C-68.747,-8.558 -68.127,-14.76 -62.284,-19.034C-54.389,-24.81 -41.038,-22.392 -39.596,-8.954C-39.141,-4.711 -38.505,-0.317 -36.936,3.601C-32.776,13.991 -22.65,16.256 -15.48,14.562C-9.625,13.178 -7.321,7.527 -10.961,3.292C-12.127,1.935 -14.219,1.254 -16.008,0.588C-17.435,0.056 -19.086,0.158 -20.566,-0.271C-22.907,-0.95 -24.018,-2.611 -23.885,-4.822C-23.75,-7.073 -22.5,-8.507 -19.984,-8.804C-14.064,-9.501 -8.334,-9.104 -3.763,-4.647C-2.438,-3.356 -1.51,-1.659 0,0.397" style="fill:white;fill-rule:nonzero;"/>
            </g>
            <g transform="matrix(1,0,0,1,223.303,144.113)">
                <path d="M0,-35.04L0,-25.366L-2.375,-25.366C-11.718,-25.365 -21.061,-25.389 -30.403,-25.351C-33.83,-25.338 -36.136,-23.727 -37.139,-20.852C-38.044,-18.256 -37.408,-14.822 -35.149,-13.354C-33.458,-12.255 -31.262,-11.914 -29.269,-11.308C-28.397,-11.044 -27.447,-11.041 -26.572,-10.783C-24.352,-10.126 -23.018,-8.374 -23.047,-6.288C-23.075,-4.184 -24.436,-2.701 -26.865,-2.127C-36.375,0.119 -46.138,-6.97 -47.086,-16.81C-48.008,-26.389 -42.139,-33.537 -31.88,-34.545C-25.638,-35.159 -19.312,-34.938 -13.022,-35.028C-8.724,-35.09 -4.424,-35.04 0,-35.04" style="fill:white;fill-rule:nonzero;"/>
            </g>
            <g transform="matrix(1,0,0,1,176.651,131.231)">
                <path d="M0,23.051C-0.159,23.157 -0.265,23.289 -0.37,23.289C-9.703,23.269 -19.048,23.526 -28.364,23.123C-36.586,22.766 -41.478,15.669 -39.525,7.81C-38.377,3.188 -34.281,-0.108 -29.538,-0.196C-25.154,-0.278 -20.767,-0.28 -16.386,-0.426C-14.898,-0.475 -14.317,-0.049 -14.056,1.496C-13.58,4.324 -12.772,7.095 -12.037,10.162C-15.266,10.162 -18.493,10.161 -21.721,10.162C-23.561,10.163 -25.409,10.075 -27.238,10.218C-27.85,10.267 -28.416,10.908 -29.003,11.279C-28.466,11.824 -28.009,12.683 -27.374,12.846C-26.308,13.119 -25.128,12.963 -23.997,12.965C-19.962,12.971 -15.927,12.938 -11.893,12.996C-11.188,13.006 -10.259,13.169 -9.826,13.63C-8.234,15.327 -6.942,17.318 -5.279,18.933C-3.694,20.472 -1.787,21.68 0,23.051" style="fill:white;fill-rule:nonzero;"/>
            </g>
            <g transform="matrix(1,0,0,1,142.678,161.66)">
                <path d="M0,11.79L0,0L3.175,0L4.878,5.725C5.036,6.239 5.171,6.738 5.274,7.229C5.384,7.72 5.471,8.195 5.527,8.662C5.622,8.227 5.733,7.775 5.852,7.308C5.97,6.849 6.121,6.334 6.295,5.756L8.029,0L11.078,0L11.078,11.79L9.177,11.79L9.177,1.9C9.074,2.336 8.971,2.771 8.853,3.207C8.734,3.642 8.615,4.07 8.48,4.505L6.327,11.79L4.703,11.79L2.613,4.505C2.399,3.745 2.241,3.191 2.154,2.842C2.059,2.486 1.98,2.177 1.916,1.9L1.916,11.79L0,11.79Z" style="fill:white;fill-rule:nonzero;"/>
            </g>
            <g transform="matrix(1,0,0,1,158.282,161.66)">
                <path d="M0,11.79L0,0L7.657,0L7.657,1.916L2.209,1.916L2.209,4.703L6.176,4.703L6.176,6.588L2.209,6.588L2.209,9.779L7.894,9.779L7.894,11.79L0,11.79Z" style="fill:white;fill-rule:nonzero;"/>
            </g>
            <g transform="matrix(1,0,0,1,169.073,161.66)">
                <path d="M0,11.79L0,0L3.175,0L4.878,5.725C5.036,6.239 5.171,6.738 5.273,7.229C5.384,7.72 5.471,8.195 5.527,8.662C5.622,8.227 5.733,7.775 5.852,7.308C5.97,6.849 6.121,6.334 6.295,5.756L8.029,0L11.078,0L11.078,11.79L9.177,11.79L9.177,1.9C9.074,2.336 8.971,2.771 8.853,3.207C8.734,3.642 8.615,4.07 8.48,4.505L6.327,11.79L4.703,11.79L2.613,4.505C2.399,3.745 2.241,3.191 2.154,2.842C2.059,2.486 1.98,2.177 1.916,1.9L1.916,11.79L0,11.79Z" style="fill:white;fill-rule:nonzero;"/>
            </g>
            <g transform="matrix(1,0,0,1,186.505,163.473)">
                <path d="M0,8.164L1.813,8.164C2.613,8.164 3.199,8.021 3.563,7.744C3.935,7.459 4.117,7.008 4.117,6.39C4.117,5.812 3.935,5.385 3.579,5.1C3.215,4.815 2.661,4.672 1.916,4.672L0,4.672L0,8.164ZM0,2.906L1.813,2.906C2.502,2.906 3.025,2.788 3.365,2.542C3.706,2.297 3.88,1.932 3.88,1.449C3.88,0.943 3.706,0.57 3.365,0.349C3.025,0.111 2.463,0 1.687,0L0,0L0,2.906ZM-2.17,9.977L-2.17,-1.813L2.106,-1.813C3.397,-1.813 4.379,-1.544 5.052,-1.013C5.725,-0.483 6.065,0.293 6.065,1.315C6.065,1.885 5.923,2.368 5.654,2.772C5.369,3.168 4.941,3.508 4.347,3.801C5.012,4.031 5.511,4.379 5.844,4.862C6.176,5.337 6.342,5.939 6.342,6.667C6.342,7.784 5.986,8.615 5.273,9.154C4.553,9.708 3.46,9.977 1.995,9.977L-2.17,9.977Z" style="fill:white;fill-rule:nonzero;"/>
            </g>
            <g transform="matrix(1,0,0,1,196.837,161.66)">
                <path d="M0,11.79L0,0L7.657,0L7.657,1.916L2.209,1.916L2.209,4.703L6.176,4.703L6.176,6.588L2.209,6.588L2.209,9.779L7.894,9.779L7.894,11.79L0,11.79Z" style="fill:white;fill-rule:nonzero;"/>
            </g>
            <g transform="matrix(1,0,0,1,210.639,168.311)">
                <path d="M0,-1.512L1.932,-1.512C2.645,-1.512 3.167,-1.647 3.5,-1.908C3.84,-2.169 4.007,-2.589 4.007,-3.151C4.007,-3.713 3.84,-4.125 3.5,-4.386C3.167,-4.648 2.645,-4.782 1.932,-4.782L0,-4.782L0,-1.512ZM-2.17,5.139L-2.17,-6.651L1.821,-6.651C3.318,-6.651 4.426,-6.358 5.155,-5.788C5.883,-5.202 6.247,-4.323 6.247,-3.127C6.247,-2.359 6.057,-1.726 5.685,-1.211C5.313,-0.696 4.775,-0.348 4.07,-0.15L6.683,5.139L4.3,5.139L2.027,0.357L0,0.357L0,5.139L-2.17,5.139Z" style="fill:white;fill-rule:nonzero;"/>
            </g>
            <g transform="matrix(1,0,0,1,266.496,141.291)">
                <path d="M0.907,-0.006L-0.907,-0.006C-0.886,12.093 -10.229,23.3 -25.723,31.494C-41.186,39.678 -62.66,44.774 -86.389,44.774C-110.112,44.774 -131.586,39.678 -147.049,31.494C-162.543,23.3 -171.886,12.093 -171.865,-0.006C-171.886,-12.105 -162.543,-23.307 -147.049,-31.501C-131.586,-39.684 -110.112,-44.786 -86.389,-44.781C-62.66,-44.786 -41.186,-39.684 -25.723,-31.501C-10.229,-23.307 -0.886,-12.105 -0.907,-0.006L0.907,-0.006C0.886,-13.145 -9.11,-24.787 -24.884,-33.133C-40.684,-41.485 -62.401,-46.618 -86.389,-46.618C-110.371,-46.618 -132.088,-41.485 -147.888,-33.133C-163.662,-24.787 -173.658,-13.145 -173.679,-0.006C-173.658,13.133 -163.662,24.78 -147.888,33.121C-132.088,41.478 -110.371,46.612 -86.389,46.612C-62.401,46.612 -40.684,41.478 -24.884,33.121C-9.11,24.78 0.886,13.133 0.907,-0.006Z" style="fill:white;fill-rule:nonzero;"/>
            </g>
        </g>
    </g>
</svg>
