<?xml version="1.0" encoding="UTF-8" standalone="no"?>
<!DOCTYPE svg PUBLIC "-//W3C//DTD SVG 1.1//EN" "http://www.w3.org/Graphics/SVG/1.1/DTD/svg11.dtd">
<svg width="100%" height="100%" viewBox="0 0 350 175" version="1.1" xmlns="http://www.w3.org/2000/svg" xmlns:xlink="http://www.w3.org/1999/xlink" xml:space="preserve" xmlns:serif="http://www.serif.com/" style="fill-rule:evenodd;clip-rule:evenodd;stroke-linejoin:round;stroke-miterlimit:2;">
    <rect id="Artboard1" x="0" y="0" width="350" height="175" style="fill:none;"/>
    <g id="Artboard11" serif:id="Artboard1">
        <rect x="0" y="0" width="87.5" height="175" style="fill:rgb(221,0,0);"/>
        <rect x="262.5" y="0" width="87.5" height="175" style="fill:rgb(221,0,0);"/>
        <path d="M174.997,16.406L163.058,38.675C161.703,41.095 159.276,40.871 156.848,39.519L148.204,35.043L154.647,69.248C156.001,75.497 151.655,75.497 149.509,72.795L134.424,55.907L131.975,64.483C131.693,65.609 130.451,66.792 128.588,66.51L109.512,62.5L114.523,80.715C115.595,84.768 116.432,86.447 113.44,87.516L106.641,90.711L139.478,117.384C140.778,118.393 141.434,120.208 140.972,121.851L138.098,131.282C149.404,129.979 159.535,128.018 170.847,126.811C171.846,126.704 173.518,128.352 173.511,129.509L172.013,164.062L177.51,164.062L176.644,129.583C176.638,128.426 178.154,126.704 179.153,126.811C190.465,128.018 200.596,129.979 211.902,131.282L209.028,121.851C208.566,120.207 209.222,118.393 210.522,117.384L243.359,90.711L236.56,87.516C233.568,86.447 234.405,84.768 235.477,80.715L240.488,62.499L221.412,66.51C219.549,66.792 218.307,65.609 218.025,64.483L215.576,55.907L200.491,72.795C198.345,75.497 193.999,75.497 195.353,69.248L201.796,35.043L193.152,39.519C190.724,40.871 188.297,41.095 186.942,38.675" style="fill:rgb(221,0,0);fill-rule:nonzero;"/>
    </g>
</svg>
