<?xml version="1.0" encoding="UTF-8" standalone="no"?>
<!DOCTYPE svg PUBLIC "-//W3C//DTD SVG 1.1//EN" "http://www.w3.org/Graphics/SVG/1.1/DTD/svg11.dtd">
<svg width="100%" height="100%" viewBox="0 0 899 610" version="1.1" xmlns="http://www.w3.org/2000/svg" xmlns:xlink="http://www.w3.org/1999/xlink" xml:space="preserve" xmlns:serif="http://www.serif.com/" style="fill-rule:evenodd;clip-rule:evenodd;stroke-linejoin:round;stroke-miterlimit:2;">
    <g id="Artboard1" transform="matrix(1,0,0,1,-276.189,-444.471)">
        <rect x="276.189" y="444.471" width="898.791" height="609.79" style="fill:none;"/>
        <clipPath id="_clip1">
            <rect x="276.189" y="444.471" width="898.791" height="609.79"/>
        </clipPath>
        <g clip-path="url(#_clip1)">
            <g id="Layer-1" serif:id="Layer 1" transform="matrix(4.16667,0,0,4.16667,0.18875,0.471252)">
                <g>
                    <g transform="matrix(1,0,0,1,109.369,190.866)">
                        <path d="M0,-80.676C0,-80.676 13.904,-78.135 30.173,-78.076C12.764,-79.099 -2.424,-83.889 -2.424,-83.889C-2.424,-83.889 -4.878,-58.127 -0.964,-37.447C-2.921,-58.419 0,-80.676 0,-80.676M0.73,-2.512C-1.168,-0.439 -3.009,0.379 -3.009,0.379C-3.009,0.379 57.6,3.213 88.445,-2.454C61.105,1.08 9.551,-1.957 0.73,-2.512M133.252,-1.957C133.252,-1.957 131.412,-15.569 129.893,-30.378C130.127,-18.373 130.068,-7.04 130.01,-3.535C132.2,-2.688 133.252,-1.957 133.252,-1.957M76.849,-81.231C101.385,-81.552 129.396,-79.917 129.396,-79.917C129.396,-79.917 126.767,-75.039 127.936,-61.661C128.345,-76.528 132.084,-82.721 132.084,-82.721C132.084,-82.721 102.524,-82.604 76.849,-81.231" style="fill:white;fill-rule:nonzero;"/>
                    </g>
                    <g transform="matrix(0.776029,0.630698,0.630698,-0.776029,224.934,118.193)">
                        <path d="M1.562,0.742C4.168,0.639 4.934,2.428 4.076,4.178C3.58,5.205 2.433,7.359 1.562,8.985C-0.683,7.348 -3.676,5.104 -7.21,2.458C-3.558,1.624 0.321,0.787 1.562,0.742" style="fill:white;fill-rule:nonzero;"/>
                    </g>
                    <g transform="matrix(1,0,0,1,186.306,116.996)">
                        <path d="M0,65.925C-0.613,65.516 -1.373,64.99 -1.986,64.611C-4.527,63.559 -11.567,63.267 -10.866,60.697C-10.428,59.09 -6.66,58.915 -4.936,58.915C-1.548,58.886 1.811,59.908 4.878,61.631C7.478,63.092 8.996,65.078 12.063,65.808C12.531,65.662 12.648,65.633 13.144,65.37C13.524,63.939 14.254,62.391 13.553,60.872C13.115,59.908 11.8,59.09 10.895,58.009C9.026,55.76 6.777,53.219 4.206,51.613C3.213,50.97 2.483,50.298 1.49,49.656C0.292,48.546 -2.454,46.092 -3.593,45.274C-7.536,42.47 -11.625,38.089 -8.208,37.066C-4.79,36.044 -2.921,38.79 0.175,40.98C5.258,44.544 10.749,48.896 16.299,51.583C16.357,51.583 16.445,51.583 16.503,51.554C16.445,50.298 13.874,47.932 12.91,46.53C10.778,43.434 8.295,40.513 5.929,37.154C4.323,34.876 1.607,32.218 4.527,31.137C7.74,29.939 10.369,32.948 11.976,35.022C13.378,36.57 16.153,39.695 16.153,39.695C16.153,39.695 17.934,41.681 18.665,42.616C20.446,44.894 21.673,46.296 24.01,48.429C24.331,47.465 22.725,44.953 22.725,44.953C22.725,44.953 21.673,43.2 21.44,42.441C19.979,40.133 18.519,37.797 17.087,35.46C16.007,33.678 13.933,30.962 17.701,30.611C20.359,30.378 22.871,32.919 24.273,34.905C25.003,36.132 25.733,37.329 26.463,38.556C28.304,41.156 30.056,43.697 31.604,46.267C32.101,47.085 33.036,49.159 34.496,49.743C35.109,49.948 35.431,49.802 36.073,49.451C36.716,46.413 37.505,43.113 37.242,39.958C37.154,39.023 36.511,35.694 36.833,35.139C37.592,33.824 39.783,33.941 41.01,34.467C42.003,34.847 42.236,36.102 42.236,36.102C42.236,36.102 44.193,42.353 44.369,44.077C44.602,46.296 44.135,48.487 44.515,50.707C45.04,53.92 47.523,57.338 48.838,60.551C50.064,63.559 49.831,66.363 50.532,69.284L50.59,69.43L50.649,69.459C50.649,69.459 51.233,41.944 50.123,24.156L49.948,24.01C47.319,24.098 31.926,33.386 31.926,33.386C31.926,33.386 30.699,30.845 30.378,29.823C30.056,28.8 29.501,27.749 26.201,27.807C22.929,27.836 -3.534,26.493 -3.534,26.493C-3.534,26.493 -0.497,24.828 0.321,24.419C1.139,23.981 0.613,23.426 -1.139,22.462C-2.892,21.498 -12.794,17.233 -12.794,17.233C-12.794,17.233 -3.417,15.539 -0.964,15.043C1.49,14.575 1.811,13.933 1.782,13.495C1.753,13.057 -0.234,9.668 -0.234,9.668C-0.234,9.668 10.165,11.275 13.641,11.742C17.117,12.209 19.336,11.713 17.029,10.106C14.721,8.5 -1.519,0.292 -1.519,0.292C-1.519,0.292 7.302,0.759 9.318,-0.409C9.844,-1.022 9.405,-3.359 8.821,-5.667C-4.703,-5.725 -18.46,-5.374 -27.164,-4.002C-49.451,-0.467 -74.863,-4.381 -74.863,-4.381C-74.863,-4.381 -74.95,-3.651 -75.067,-2.395C-72.906,-2.103 -70.744,-1.811 -68.583,-1.519C-64.698,-1.314 -61.076,-1.694 -57.045,-1.139C-52.693,-0.584 -47.99,0.672 -43.755,0.759C-40.863,0.818 -38.059,0.351 -35.138,0.321C-32.889,0.292 -24.536,1.022 -24.536,1.022C-24.536,1.022 -22.871,1.081 -22.286,1.636C-21.469,2.337 -21.089,3.71 -22.695,4.265C-23.396,4.498 -27.807,4.352 -29.005,4.381C-33.123,4.469 -37.3,5.199 -41.214,5.842C-41.594,6.28 -41.74,6.484 -41.418,6.835C-40.484,7.682 -37.709,8.091 -36.57,8.325C-33.094,9.055 -29.589,9.96 -25.996,10.866C-24.331,11.216 -22.666,11.567 -21.03,11.947C-18.285,12.648 -14.692,13.991 -14.721,15.656C-14.751,17.993 -18.518,16.941 -20.943,16.416C-24.127,15.685 -27.31,14.984 -30.465,14.283C-31.487,14.196 -33.882,13.67 -33.882,13.67C-33.882,13.67 -37.329,12.881 -38.556,13.144C-35.547,14.4 -33.561,15.072 -30.436,15.977C-29.121,16.357 -26.376,17.292 -26.376,17.292C-26.376,17.292 -22.024,18.752 -19.833,19.512C-16.941,20.33 -12.764,21.732 -13.962,23.776C-15.072,25.646 -18.811,24.185 -21.936,23.367C-26.551,22.17 -30.611,20.855 -34.876,19.804C-36.833,19.307 -40.162,17.905 -41.827,17.993L-41.827,18.11C-37.709,21.323 -31.458,24.36 -26.288,27.194C-23.104,28.917 -19.336,29.852 -20.271,32.042C-21.206,34.233 -27.369,32.042 -31.458,29.852C-32.656,29.209 -36.161,27.719 -37.709,27.048C-38.644,26.493 -39.607,26.084 -40.542,25.529C-42.908,24.068 -46.442,22.9 -49.597,21.907C-51.087,21.44 -52.284,20.68 -53.599,20.505C-55.672,20.184 -57.6,20.768 -59.411,21.118C-59.674,21.44 -59.733,21.498 -59.879,21.819C-58.593,23.659 -55.848,24.419 -53.657,25.909C-51.087,27.661 -49.393,29.647 -49.042,31.75C-48.867,32.802 -48.691,35.139 -50.736,35.518C-54.037,36.161 -55.205,31.838 -56.812,30.348C-57.396,29.998 -58.184,29.56 -58.769,29.238C-60.054,28.274 -61.543,27.603 -62.829,26.639C-64.085,25.909 -65.458,25.295 -66.714,24.565C-67.531,24.01 -68.817,23.718 -69.488,23.075C-71.007,21.673 -71.708,19.716 -72.614,18.168C-73.402,16.825 -74.454,15.656 -75.564,14.313C-75.798,14.02 -76.002,13.728 -76.236,13.436C-76.674,23.221 -76.732,35.314 -75.359,45.274L-75.33,45.216C-74.658,43.697 -72.322,35.694 -72.322,35.694C-72.322,35.694 -66.889,40.25 -65.428,41.419C-63.968,42.616 -63.033,42.441 -62.478,42.207C-61.923,41.944 -58.068,38.994 -58.068,38.994C-58.068,38.994 -56.666,45.858 -56.14,48.137C-55.585,50.415 -54.154,51.408 -52.839,49.247C-51.496,47.085 -46.092,33.328 -46.092,33.328C-46.092,33.328 -43.726,38.702 -41.477,39.257C-39.403,39.199 -28.42,32.627 -28.42,32.627L-28.654,33.036L-28.333,32.656C-28.333,32.656 -29.822,43.784 -28.858,45.303C-27.164,46.647 -20.359,45.683 -20.359,45.683C-20.359,45.683 -32.188,56.344 -33.824,58.389C-35.46,60.434 -33.678,60.959 -31.02,60.229C-28.362,59.499 -20.417,57.104 -20.417,57.104C-20.417,57.104 -21.615,61.31 -21.615,61.836C-21.615,62.361 -21.293,63.121 -19.336,63.588C-17.379,64.056 -9.902,65.721 -9.902,65.721C-9.902,65.721 -15.013,69.664 -17.409,71.65C-8.646,71.621 -0.117,71.329 7.127,70.686C6.222,70.043 5.404,69.342 4.44,68.729C2.921,67.794 1.665,66.772 0,65.925" style="fill:white;fill-rule:nonzero;"/>
                    </g>
                    <g transform="matrix(1,0,0,1,113.166,183.505)">
                        <path d="M0,-2.658C-0.058,-2.746 -0.117,-2.862 -0.204,-3.009C-0.234,-1.577 -0.38,-0.467 -0.526,0.351C0.351,-0.292 0.935,-1.168 0,-2.658" style="fill:rgb(35,24,21);fill-rule:nonzero;"/>
                    </g>
                    <g transform="matrix(1,0,0,1,75.1943,246.977)">
                        <path d="M0,-36.95C5.17,-40.981 11.742,-42.967 19.103,-42.967C22.929,-42.967 28.304,-42.178 31.633,-41.273C32.481,-41.068 32.977,-40.922 33.62,-40.981C33.678,-39.345 34.058,-34.876 34.613,-30.582C34.262,-30.086 33.211,-30.027 32.714,-30.436C31.663,-35.256 28.479,-40.776 18.197,-40.776C7.361,-40.776 -1.84,-33.912 -1.84,-19.249C-1.84,-4.382 7.565,3.826 19.19,3.826C28.333,3.826 32.364,-2.133 33.999,-6.31C34.496,-6.66 35.547,-6.514 35.84,-6.018C35.343,-2.337 33.503,2.336 32.451,3.68C31.604,3.826 30.757,4.089 29.969,4.381C28.42,4.936 23.309,6.017 18.781,6.017C12.414,6.017 6.309,4.731 1.168,1.285C-4.527,-2.6 -8.909,-9.026 -8.909,-18.169C-8.909,-26.026 -5.374,-32.744 0,-36.95" style="fill:white;fill-rule:nonzero;"/>
                    </g>
                    <g transform="matrix(1,0,0,1,116.321,226.91)">
                        <path d="M0,2.249C-0.555,3.885 -0.497,3.943 1.49,3.943L10.194,3.943C12.239,3.943 12.385,3.651 11.742,1.752L7.916,-9.785C7.361,-11.479 6.718,-13.407 6.28,-14.254L6.134,-14.254C5.929,-13.904 5.199,-12.21 4.44,-10.077L0,2.249ZM14.02,8.558C13.524,7.01 13.232,6.776 11.129,6.776L0.438,6.776C-1.344,6.776 -1.753,6.981 -2.249,8.471L-4.732,15.919C-5.783,19.103 -6.28,21.03 -6.28,21.79C-6.28,22.637 -5.929,23.075 -4.235,23.192L-1.899,23.396C-1.402,23.747 -1.402,24.886 -2.045,25.178C-3.885,25.032 -6.076,25.032 -9.405,24.974C-11.742,24.974 -14.283,25.12 -16.211,25.178C-16.649,24.886 -16.766,23.776 -16.357,23.396L-14.02,23.192C-12.326,23.046 -10.778,22.286 -9.756,19.716C-8.471,16.474 -6.484,11.859 -3.534,3.914L3.68,-15.218C4.673,-17.759 5.082,-19.103 4.878,-20.242C6.572,-20.739 7.77,-22.024 8.558,-22.929C8.996,-22.929 9.464,-22.783 9.61,-22.287C10.544,-19.161 11.654,-15.919 12.735,-12.794L22.433,15.685C24.477,21.761 25.412,22.841 28.45,23.192L30.348,23.396C30.845,23.747 30.699,24.886 30.348,25.178C27.457,25.032 24.974,24.974 21.79,24.974C18.402,24.974 15.685,25.12 13.641,25.178C13.086,24.886 12.998,23.776 13.495,23.396L15.539,23.192C17.029,23.046 18.022,22.637 18.022,21.907C18.022,21.118 17.672,19.862 17.087,18.168L14.02,8.558" style="fill:white;fill-rule:nonzero;"/>
                    </g>
                    <g transform="matrix(1,0,0,1,170.328,224.515)">
                        <path d="M0,8.47C1.636,11.8 3.184,15.042 4.878,18.167L5.024,18.167C6.952,14.838 8.704,11.157 10.486,7.535L17.146,-5.988C20.417,-12.444 22.374,-16.329 22.52,-19.6C24.915,-19.395 26.405,-19.395 27.836,-19.395C29.618,-19.395 31.955,-19.454 34.145,-19.6C34.554,-19.308 34.554,-18.11 34.233,-17.818L32.743,-17.672C28.274,-17.176 27.719,-15.89 27.778,-10.954C27.924,-3.447 27.982,9.668 28.567,19.862C28.771,23.396 28.713,25.236 32.042,25.587L34.291,25.791C34.73,26.229 34.642,27.281 34.145,27.573C31.254,27.427 28.333,27.368 25.792,27.368C23.309,27.368 20.125,27.427 17.233,27.573C16.737,27.222 16.678,26.229 17.087,25.791L19.132,25.587C22.608,25.236 22.608,24.097 22.608,19.569L22.374,-9.932L22.228,-9.932C21.732,-9.143 19.044,-3.477 17.613,-0.731L11.304,11.654C8.12,17.905 4.936,24.535 3.651,27.806C3.505,28.011 3.213,28.099 2.95,28.099C2.804,28.099 2.454,28.04 2.308,27.806C1.11,24.068 -2.308,17.116 -3.914,13.64L-10.282,-0.03C-11.771,-3.301 -13.261,-6.982 -14.809,-10.224L-14.955,-10.224C-15.247,-5.842 -15.452,-1.724 -15.656,2.395C-15.861,6.717 -16.153,13.027 -16.153,19.044C-16.153,24.272 -15.744,25.411 -12.969,25.616L-10.282,25.82C-9.785,26.258 -9.843,27.368 -10.34,27.602C-12.735,27.456 -15.51,27.398 -18.197,27.398C-20.446,27.398 -23.017,27.456 -25.412,27.602C-25.85,27.251 -25.967,26.2 -25.558,25.82L-24.01,25.616C-21.031,25.265 -20.037,24.769 -19.628,19.803C-19.19,15.13 -18.84,11.245 -18.431,4.205C-18.08,-1.666 -17.788,-7.683 -17.642,-11.597C-17.496,-16.066 -18.08,-16.971 -22.374,-17.701L-23.513,-17.847C-23.864,-18.286 -23.805,-19.337 -23.221,-19.629C-21.089,-19.483 -19.395,-19.425 -17.613,-19.425C-15.977,-19.425 -14.079,-19.425 -11.742,-19.629C-12.034,-16.883 -10.252,-12.473 -8.062,-7.945L0,8.47" style="fill:white;fill-rule:nonzero;"/>
                    </g>
                    <g transform="matrix(1,0,0,1,218.991,204.039)">
                        <path d="M0,48.984C-5.959,48.984 -9.697,47.144 -11.041,46.355C-11.888,44.807 -12.823,39.783 -12.969,36.453C-12.618,35.957 -11.567,35.811 -11.275,36.249C-10.223,39.871 -7.302,46.793 0.905,46.793C6.835,46.793 9.756,42.908 9.756,38.644C9.756,35.519 9.113,32.072 3.943,28.742L-2.775,24.361C-6.309,22.024 -10.428,17.993 -10.428,12.181C-10.428,5.462 -5.199,0 4.031,0C6.222,0 8.763,0.351 10.603,0.935C11.538,1.139 12.531,1.373 13.086,1.373C13.728,3.067 14.371,7.04 14.371,10.019C14.079,10.457 12.94,10.662 12.589,10.224C11.654,6.835 9.756,2.22 2.95,2.22C-3.972,2.22 -5.491,6.835 -5.491,10.077C-5.491,14.196 -2.103,17.088 0.526,18.782L6.192,22.316C10.661,25.062 15.043,29.18 15.043,35.898C15.072,43.668 9.201,48.984 0,48.984" style="fill:white;fill-rule:nonzero;"/>
                    </g>
                    <g transform="matrix(1,0,0,1,246.155,246.977)">
                        <path d="M0,-36.95C5.17,-40.981 11.742,-42.967 19.103,-42.967C22.929,-42.967 28.304,-42.178 31.633,-41.273C32.481,-41.068 32.977,-40.922 33.62,-40.981C33.678,-39.345 34.058,-34.876 34.613,-30.582C34.262,-30.086 33.182,-30.027 32.714,-30.436C31.663,-35.256 28.479,-40.776 18.197,-40.776C7.361,-40.776 -1.84,-33.912 -1.84,-19.249C-1.84,-4.382 7.594,3.826 19.19,3.826C28.333,3.826 32.364,-2.133 33.999,-6.31C34.496,-6.66 35.547,-6.514 35.84,-6.018C35.343,-2.337 33.503,2.336 32.451,3.68C31.604,3.826 30.757,4.089 29.969,4.381C28.42,4.936 23.309,6.017 18.781,6.017C12.414,6.017 6.309,4.731 1.168,1.285C-4.527,-2.6 -8.938,-9.026 -8.938,-18.169C-8.938,-26.026 -5.404,-32.744 0,-36.95" style="fill:white;fill-rule:nonzero;"/>
                    </g>
                </g>
            </g>
        </g>
    </g>
</svg>
