<?xml version="1.0" encoding="UTF-8" standalone="no"?>
<!DOCTYPE svg PUBLIC "-//W3C//DTD SVG 1.1//EN" "http://www.w3.org/Graphics/SVG/1.1/DTD/svg11.dtd">
<svg width="100%" height="100%" viewBox="0 0 846 405" version="1.1" xmlns="http://www.w3.org/2000/svg" xmlns:xlink="http://www.w3.org/1999/xlink" xml:space="preserve" xmlns:serif="http://www.serif.com/" style="fill-rule:evenodd;clip-rule:evenodd;stroke-linejoin:round;stroke-miterlimit:2;">
    <g id="Artboard1" transform="matrix(1,0,0,1,-327.227,-388.953)">
        <rect x="327.227" y="388.953" width="845.58" height="404.882" style="fill:none;"/>
        <clipPath id="_clip1">
            <rect x="327.227" y="388.953" width="845.58" height="404.882"/>
        </clipPath>
        <g clip-path="url(#_clip1)">
            <g id="Layer-1" serif:id="Layer 1" transform="matrix(4.16667,0,0,4.16667,0.227083,0.953333)">
                <g>
                    <g transform="matrix(1,0,0,1,101.077,93.3488)">
                        <path d="M0,79.046L0,55.413L11.366,55.413C31.141,55.413 39.921,43.692 39.921,26.677C39.921,10.432 30.371,0 10.605,0L-22.543,0L-22.543,79.046L0,79.046ZM-0.415,36.435L-0.415,20.579L8.676,20.579C12.837,20.579 19.602,20.501 19.602,27.862C19.602,34.67 14.195,36.435 8.944,36.435L-0.415,36.435Z" style="fill:white;fill-rule:nonzero;"/>
                    </g>
                    <g transform="matrix(1,0,0,1,162.942,93.3488)">
                        <path d="M0,79.046L0,55.413L11.366,55.413C31.141,55.413 39.921,43.692 39.921,26.677C39.921,10.432 30.371,0 10.605,0L-22.543,0L-22.543,79.046L0,79.046ZM-0.415,36.435L-0.415,20.579L8.676,20.579C12.837,20.579 19.602,20.501 19.602,27.862C19.602,34.67 14.195,36.435 8.944,36.435L-0.415,36.435Z" style="fill:white;fill-rule:nonzero;"/>
                    </g>
                    <g transform="matrix(1,0,0,1,207.191,93.3488)">
                        <path d="M0,79.046L2.578,67.835L25.025,67.835L28.373,79.046L50.146,79.046L25.501,0L3.685,0L-22.067,79.046L0,79.046ZM21.107,51.365L6.877,51.365L14.342,26.556L21.107,51.365Z" style="fill:white;fill-rule:nonzero;"/>
                    </g>
                    <g transform="matrix(1,0,0,1,0,-94.254)">
                        <rect x="254.751" y="187.604" width="22.543" height="79.046" style="fill:white;"/>
                    </g>
                    <g transform="matrix(1,0,0,1,78.8627,190.227)">
                        <path d="M0,-13.806L11.211,-13.806L11.211,-12.154L6.54,-12.154L6.54,0L4.671,0L4.671,-12.154L0,-12.154L0,-13.806Z" style="fill:white;fill-rule:nonzero;"/>
                    </g>
                    <g transform="matrix(1,0,0,1,98.2488,176.424)">
                        <path d="M0,13.806L-1.696,13.806L-1.696,7.232C-1.696,5.865 -2.076,4.974 -3.694,4.974C-5.078,4.974 -6.496,5.787 -6.496,8.322L-6.496,13.806L-8.192,13.806L-8.192,0L-6.496,0L-6.496,5.095L-6.462,5.095C-5.977,4.455 -5.138,3.46 -3.521,3.46C-1.964,3.46 0,4.092 0,6.955L0,13.806Z" style="fill:white;fill-rule:nonzero;"/>
                    </g>
                    <g transform="matrix(1,0,0,1,106.057,183.322)">
                        <path d="M0,3.754C-0.061,4.507 -1.003,5.735 -2.595,5.735C-4.541,5.735 -5.519,4.524 -5.519,2.43L1.825,2.43C1.825,-1.133 0.407,-3.443 -2.5,-3.443C-5.83,-3.443 -7.327,-0.96 -7.327,2.154C-7.327,5.06 -5.657,7.197 -2.829,7.197C-1.211,7.197 -0.554,6.808 -0.095,6.505C1.176,5.657 1.635,4.238 1.695,3.754L0,3.754ZM-5.519,1.081C-5.519,-0.476 -4.291,-1.921 -2.734,-1.921C-0.675,-1.921 -0.017,-0.476 0.078,1.081L-5.519,1.081Z" style="fill:white;fill-rule:nonzero;"/>
                    </g>
                    <g transform="matrix(1,0,0,1,123.752,176.424)">
                        <path d="M0,13.806L0,5.649C0,5.251 0.035,3.495 0.035,2.206L0,2.206L-3.884,13.806L-5.735,13.806L-9.619,2.232L-9.654,2.232C-9.654,3.495 -9.619,5.251 -9.619,5.649L-9.619,13.806L-11.427,13.806L-11.427,0L-8.754,0L-4.81,11.669L-4.766,11.669L-0.848,0L1.808,0L1.808,13.806L0,13.806Z" style="fill:white;fill-rule:nonzero;"/>
                    </g>
                    <g transform="matrix(1,0,0,1,128.155,187.172)">
                        <path d="M0,-3.944C0.112,-4.714 0.381,-5.89 2.31,-5.89C3.901,-5.89 4.671,-5.311 4.671,-4.255C4.671,-3.252 4.195,-3.096 3.789,-3.062L1.003,-2.716C-1.808,-2.37 -2.059,-0.406 -2.059,0.442C-2.059,2.172 -0.753,3.348 1.099,3.348C3.054,3.348 4.074,2.423 4.732,1.713C4.792,2.483 5.017,3.253 6.522,3.253C6.903,3.253 7.154,3.132 7.439,3.054L7.439,1.826C7.249,1.86 7.041,1.904 6.886,1.904C6.54,1.904 6.323,1.731 6.323,1.307L6.323,-4.48C6.323,-7.058 3.408,-7.292 2.595,-7.292C0.112,-7.292 -1.479,-6.349 -1.557,-3.944L0,-3.944ZM4.637,-0.423C4.637,0.917 3.097,1.938 1.522,1.938C0.251,1.938 -0.311,1.289 -0.311,0.191C-0.311,-1.081 1.021,-1.332 1.842,-1.444C3.944,-1.712 4.368,-1.868 4.637,-2.076L4.637,-0.423Z" style="fill:white;fill-rule:nonzero;"/>
                    </g>
                    <g transform="matrix(1,0,0,1,137.733,179.884)">
                        <path d="M0,10.346L-1.696,10.346L-1.696,0.286L-0.095,0.286L-0.095,1.964L-0.061,1.964C0.614,0.787 1.505,0 2.768,0C2.984,0 3.079,0.018 3.209,0.061L3.209,1.808L2.578,1.808C1.003,1.808 0,3.037 0,4.498L0,10.346Z" style="fill:white;fill-rule:nonzero;"/>
                    </g>
                    <g transform="matrix(1,0,0,1,149.348,176.424)">
                        <path d="M0,13.806L-2.171,13.806L-5.311,8.728L-6.713,10L-6.713,13.806L-8.348,13.806L-8.348,0L-6.713,0L-6.713,8.002L-2.387,3.746L-0.234,3.746L-4.074,7.5L0,13.806Z" style="fill:white;fill-rule:nonzero;"/>
                    </g>
                    <g transform="matrix(1,0,0,1,153.425,185.19)">
                        <path d="M0,0C0,2.595 1.462,5.311 4.671,5.311C7.889,5.311 9.351,2.595 9.351,0C9.351,-2.595 7.889,-5.311 4.671,-5.311C1.462,-5.311 0,-2.595 0,0M1.747,0C1.747,-1.349 2.249,-3.849 4.671,-3.849C7.093,-3.849 7.595,-1.349 7.595,0C7.595,1.349 7.093,3.849 4.671,3.849C2.249,3.849 1.747,1.349 1.747,0" style="fill:white;fill-rule:nonzero;"/>
                    </g>
                    <g transform="matrix(1,0,0,1,166.022,184.888)">
                        <path d="M0,-3.313L0,5.346L-1.696,5.346L-1.696,-3.313L-3.08,-3.313L-3.08,-4.714L-1.696,-4.714L-1.696,-6.444C-1.696,-7.967 -0.727,-8.659 0.926,-8.659C1.176,-8.659 1.427,-8.642 1.695,-8.624L1.695,-7.102C1.479,-7.119 1.211,-7.136 1.003,-7.136C0.268,-7.136 0,-6.773 0,-5.969L0,-4.714L1.695,-4.714L1.695,-3.313L0,-3.313Z" style="fill:white;fill-rule:nonzero;"/>
                    </g>
                    <g transform="matrix(1,0,0,1,173.426,187.172)">
                        <path d="M0,-3.944C0.112,-4.714 0.381,-5.89 2.31,-5.89C3.901,-5.89 4.671,-5.311 4.671,-4.255C4.671,-3.252 4.195,-3.096 3.789,-3.062L1.003,-2.716C-1.808,-2.37 -2.059,-0.406 -2.059,0.442C-2.059,2.172 -0.753,3.348 1.099,3.348C3.062,3.348 4.074,2.423 4.732,1.713C4.792,2.483 5.017,3.253 6.522,3.253C6.903,3.253 7.154,3.132 7.448,3.054L7.448,1.826C7.249,1.86 7.041,1.904 6.886,1.904C6.54,1.904 6.323,1.731 6.323,1.307L6.323,-4.48C6.323,-7.058 3.408,-7.292 2.595,-7.292C0.112,-7.292 -1.479,-6.349 -1.557,-3.944L0,-3.944ZM4.637,-0.423C4.637,0.917 3.097,1.938 1.522,1.938C0.251,1.938 -0.303,1.289 -0.303,0.191C-0.303,-1.081 1.021,-1.332 1.851,-1.444C3.944,-1.712 4.368,-1.868 4.637,-2.076L4.637,-0.423Z" style="fill:white;fill-rule:nonzero;"/>
                    </g>
                    <g transform="matrix(1,0,0,1,187.159,182.248)">
                        <path d="M0,2.154L4.342,2.154C7.344,2.154 8.443,-0.017 8.443,-1.938C8.443,-4.169 6.903,-5.83 4.342,-5.83L-1.868,-5.83L-1.868,7.984L0,7.984L0,2.154ZM0,-4.23L3.789,-4.23C5.329,-4.23 6.522,-3.676 6.522,-1.92C6.522,-0.06 5.389,0.562 3.711,0.562L0,0.562L0,-4.23Z" style="fill:white;fill-rule:nonzero;"/>
                    </g>
                    <g transform="matrix(1,0,0,1,198.102,179.884)">
                        <path d="M0,10.346L-1.696,10.346L-1.696,0.286L-0.095,0.286L-0.095,1.964L-0.061,1.964C0.614,0.787 1.496,0 2.768,0C2.984,0 3.079,0.018 3.209,0.061L3.209,1.808L2.578,1.808C1.003,1.808 0,3.037 0,4.498L0,10.346Z" style="fill:white;fill-rule:nonzero;"/>
                    </g>
                    <g transform="matrix(1,0,0,1,200.467,185.19)">
                        <path d="M0,0C0,2.595 1.462,5.311 4.671,5.311C7.889,5.311 9.351,2.595 9.351,0C9.351,-2.595 7.889,-5.311 4.671,-5.311C1.462,-5.311 0,-2.595 0,0M1.747,0C1.747,-1.349 2.249,-3.849 4.671,-3.849C7.093,-3.849 7.595,-1.349 7.595,0C7.595,1.349 7.093,3.849 4.671,3.849C2.249,3.849 1.747,1.349 1.747,0" style="fill:white;fill-rule:nonzero;"/>
                    </g>
                    <g transform="matrix(1,0,0,1,213.064,184.888)">
                        <path d="M0,-3.313L0,5.346L-1.696,5.346L-1.696,-3.313L-3.08,-3.313L-3.08,-4.714L-1.696,-4.714L-1.696,-6.444C-1.696,-7.967 -0.727,-8.659 0.926,-8.659C1.176,-8.659 1.427,-8.642 1.695,-8.624L1.695,-7.102C1.479,-7.119 1.211,-7.136 1.003,-7.136C0.268,-7.136 0,-6.773 0,-5.969L0,-4.714L1.695,-4.714L1.695,-3.313L0,-3.313Z" style="fill:white;fill-rule:nonzero;"/>
                    </g>
                    <g transform="matrix(1,0,0,1,221.815,183.322)">
                        <path d="M0,3.754C-0.061,4.507 -1.003,5.735 -2.595,5.735C-4.541,5.735 -5.519,4.524 -5.519,2.43L1.825,2.43C1.825,-1.133 0.407,-3.443 -2.5,-3.443C-5.83,-3.443 -7.327,-0.96 -7.327,2.154C-7.327,5.06 -5.657,7.197 -2.829,7.197C-1.211,7.197 -0.554,6.808 -0.095,6.505C1.176,5.657 1.635,4.238 1.695,3.754L0,3.754ZM-5.519,1.081C-5.519,-0.476 -4.291,-1.921 -2.734,-1.921C-0.675,-1.921 -0.017,-0.476 0.078,1.081L-5.519,1.081Z" style="fill:white;fill-rule:nonzero;"/>
                    </g>
                    <g transform="matrix(1,0,0,1,229.835,187.361)">
                        <path d="M0,-4.325C-0.017,-4.956 -0.251,-6.02 -2.387,-6.02C-2.907,-6.02 -4.386,-5.847 -4.386,-4.593C-4.386,-3.771 -3.867,-3.572 -2.561,-3.244L-0.865,-2.828C1.228,-2.301 1.964,-1.54 1.964,-0.173C1.964,1.903 0.251,3.157 -2.024,3.157C-6.003,3.157 -6.289,0.848 -6.349,-0.363L-4.714,-0.363C-4.654,0.424 -4.42,1.696 -2.041,1.696C-0.83,1.696 0.268,1.211 0.268,0.095C0.268,-0.709 -0.286,-0.977 -1.73,-1.341L-3.694,-1.825C-5.095,-2.171 -6.021,-2.88 -6.021,-4.264C-6.021,-6.479 -4.195,-7.482 -2.215,-7.482C1.384,-7.482 1.635,-4.827 1.635,-4.325L0,-4.325Z" style="fill:white;fill-rule:nonzero;"/>
                    </g>
                    <g transform="matrix(1,0,0,1,237.914,187.361)">
                        <path d="M0,-4.325C-0.017,-4.956 -0.251,-6.02 -2.387,-6.02C-2.907,-6.02 -4.386,-5.847 -4.386,-4.593C-4.386,-3.771 -3.867,-3.572 -2.561,-3.244L-0.865,-2.828C1.228,-2.301 1.964,-1.54 1.964,-0.173C1.964,1.903 0.251,3.157 -2.024,3.157C-6.003,3.157 -6.289,0.848 -6.349,-0.363L-4.714,-0.363C-4.654,0.424 -4.42,1.696 -2.041,1.696C-0.83,1.696 0.268,1.211 0.268,0.095C0.268,-0.709 -0.286,-0.977 -1.73,-1.341L-3.694,-1.825C-5.095,-2.171 -6.021,-2.88 -6.021,-4.264C-6.021,-6.479 -4.195,-7.482 -2.215,-7.482C1.384,-7.482 1.635,-4.827 1.635,-4.325L0,-4.325Z" style="fill:white;fill-rule:nonzero;"/>
                    </g>
                    <g transform="matrix(1,0,0,1,0,6.652)">
                        <path d="M240.314,169.767L242.009,169.767L242.009,171.687L240.314,171.687L240.314,169.767ZM242.01,183.581L240.315,183.581L240.315,173.521L242.01,173.521L242.01,183.581Z" style="fill:white;fill-rule:nonzero;"/>
                    </g>
                    <g transform="matrix(1,0,0,1,243.202,185.19)">
                        <path d="M0,0C0,2.595 1.462,5.311 4.671,5.311C7.889,5.311 9.351,2.595 9.351,0C9.351,-2.595 7.889,-5.311 4.671,-5.311C1.462,-5.311 0,-2.595 0,0M1.747,0C1.747,-1.349 2.249,-3.849 4.671,-3.849C7.093,-3.849 7.595,-1.349 7.595,0C7.595,1.349 7.093,3.849 4.671,3.849C2.249,3.849 1.747,1.349 1.747,0" style="fill:white;fill-rule:nonzero;"/>
                    </g>
                    <g transform="matrix(1,0,0,1,261.126,179.884)">
                        <path d="M0,10.346L-1.696,10.346L-1.696,4.152C-1.696,2.405 -2.189,1.514 -3.849,1.514C-4.81,1.514 -6.496,2.137 -6.496,4.862L-6.496,10.346L-8.192,10.346L-8.192,0.286L-6.6,0.286L-6.6,1.713L-6.557,1.713C-6.194,1.168 -5.251,0 -3.521,0C-1.964,0 0,0.632 0,3.495L0,10.346Z" style="fill:white;fill-rule:nonzero;"/>
                    </g>
                    <g transform="matrix(1,0,0,1,263.973,187.172)">
                        <path d="M0,-3.944C0.112,-4.714 0.381,-5.89 2.31,-5.89C3.901,-5.89 4.671,-5.311 4.671,-4.255C4.671,-3.252 4.195,-3.096 3.789,-3.062L1.003,-2.716C-1.808,-2.37 -2.059,-0.406 -2.059,0.442C-2.059,2.172 -0.753,3.348 1.099,3.348C3.054,3.348 4.074,2.423 4.732,1.713C4.792,2.483 5.017,3.253 6.522,3.253C6.903,3.253 7.154,3.132 7.439,3.054L7.439,1.826C7.249,1.86 7.041,1.904 6.886,1.904C6.54,1.904 6.323,1.731 6.323,1.307L6.323,-4.48C6.323,-7.058 3.408,-7.292 2.595,-7.292C0.112,-7.292 -1.479,-6.349 -1.557,-3.944L0,-3.944ZM4.637,-0.423C4.637,0.917 3.097,1.938 1.522,1.938C0.251,1.938 -0.311,1.289 -0.311,0.191C-0.311,-1.081 1.021,-1.332 1.842,-1.444C3.944,-1.712 4.368,-1.868 4.637,-2.076L4.637,-0.423Z" style="fill:white;fill-rule:nonzero;"/>
                    </g>
                    <g transform="matrix(-1,0,0,1,545.021,6.66)">
                        <rect x="271.663" y="169.767" width="1.695" height="13.806" style="fill:white;"/>
                    </g>
                    <g transform="matrix(-1,0,0,1,551.57,18.425)">
                        <rect x="274.786" y="169.767" width="1.998" height="2.041" style="fill:white;"/>
                    </g>
                    <g transform="matrix(1,0,0,1,277.028,180.445)">
                        <path d="M0,-0.519L0,-1.817L0.865,-1.817C1.306,-1.817 1.782,-1.721 1.782,-1.202C1.782,-0.554 1.297,-0.519 0.761,-0.519L0,-0.519ZM0,0.017L0.727,0.017L1.834,1.834L2.552,1.834L1.358,-0.009C1.972,-0.086 2.439,-0.415 2.439,-1.168C2.439,-1.99 1.955,-2.353 0.96,-2.353L-0.632,-2.353L-0.632,1.834L0,1.834L0,0.017ZM0.77,3.374C2.751,3.374 4.446,1.834 4.446,-0.268C4.446,-2.353 2.751,-3.893 0.77,-3.893C-1.228,-3.893 -2.924,-2.353 -2.924,-0.268C-2.924,1.834 -1.228,3.374 0.77,3.374M-2.189,-0.268C-2.189,-1.99 -0.891,-3.287 0.77,-3.287C2.413,-3.287 3.711,-1.99 3.711,-0.268C3.711,1.479 2.413,2.768 0.77,2.768C-0.891,2.768 -2.189,1.479 -2.189,-0.268" style="fill:white;fill-rule:nonzero;"/>
                    </g>
                </g>
            </g>
        </g>
    </g>
</svg>
