<?xml version="1.0" encoding="UTF-8" standalone="no"?>
<!DOCTYPE svg PUBLIC "-//W3C//DTD SVG 1.1//EN" "http://www.w3.org/Graphics/SVG/1.1/DTD/svg11.dtd">
<svg width="100%" height="100%" viewBox="0 0 958 450" version="1.1" xmlns="http://www.w3.org/2000/svg" xmlns:xlink="http://www.w3.org/1999/xlink" xml:space="preserve" xmlns:serif="http://www.serif.com/" style="fill-rule:evenodd;clip-rule:evenodd;stroke-linejoin:round;stroke-miterlimit:2;">
    <g id="Artboard1" transform="matrix(1,0,0,1,-271.004,-380.957)">
        <rect x="271.004" y="380.957" width="957.983" height="449.82" style="fill:none;"/>
        <clipPath id="_clip1">
            <rect x="271.004" y="380.957" width="957.983" height="449.82"/>
        </clipPath>
        <g clip-path="url(#_clip1)">
            <g id="Layer-1" serif:id="Layer 1" transform="matrix(4.16667,0,0,4.16667,0.00375,0.9575)">
                <g transform="matrix(1,0,0,1,183.435,142.317)">
                    <path d="M0,-2.665C2.656,-2.665 4.974,-2.89 4.974,-5.978C4.974,-9.023 2.656,-9.248 0,-9.248L-9.636,-9.248L-9.636,-2.665L0,-2.665ZM-14.282,-13.244L-1.012,-13.244C3.019,-13.244 9.636,-13.244 9.636,-5.935C9.636,1.34 3.019,1.34 -1.012,1.34L-9.636,1.34L-9.636,10.579L-14.282,10.579L-14.282,-13.244Z" style="fill:white;fill-rule:nonzero;"/>
                </g>
                <g transform="matrix(1,0,0,1,209.087,142.317)">
                    <path d="M0,-2.665C2.656,-2.665 4.983,-2.89 4.983,-5.978C4.983,-9.023 2.656,-9.248 0,-9.248L-9.636,-9.248L-9.636,-2.665L0,-2.665ZM-14.282,-13.244L-1.012,-13.244C3.019,-13.244 9.636,-13.244 9.636,-5.935C9.636,1.34 3.019,1.34 -1.012,1.34L-9.636,1.34L-9.636,10.579L-14.282,10.579L-14.282,-13.244Z" style="fill:white;fill-rule:nonzero;"/>
                </g>
                <g transform="matrix(1,0,0,1,235.562,142.317)">
                    <path d="M0,-2.665C2.656,-2.665 4.974,-2.89 4.974,-5.978C4.974,-9.023 2.656,-9.248 0,-9.248L-9.636,-9.248L-9.636,-2.665L0,-2.665ZM-14.282,-13.244L-1.012,-13.244C3.01,-13.244 9.636,-13.244 9.636,-5.935C9.636,1.34 3.01,1.34 -1.012,1.34L-9.636,1.34L-9.636,10.579L-14.282,10.579L-14.282,-13.244Z" style="fill:white;fill-rule:nonzero;"/>
                </g>
                <g transform="matrix(1,0,0,1,272.779,137.553)">
                    <path d="M0,6.851C-0.45,9.507 -2.353,15.925 -13.296,15.925C-20.839,15.925 -26.764,11.73 -26.764,3.054C-26.764,-3.893 -22.413,-9.074 -12.932,-9.074C-2.292,-9.074 -0.718,-2.154 -0.363,-0.874L-5.009,-0.874C-5.277,-1.704 -7.111,-5.078 -12.681,-5.078C-19.264,-5.078 -22.015,-1.367 -22.015,3.581C-22.015,9.048 -18.053,11.929 -12.932,11.929C-7.5,11.929 -5.112,8.685 -4.654,6.851L0,6.851Z" style="fill:white;fill-rule:nonzero;"/>
                </g>
                <g transform="matrix(1,0,0,1,181.883,163.903)">
                    <path d="M0,17.629L0,5.839L-4.057,14.437L-6.047,14.437L-10.207,5.839L-10.207,17.629L-12.88,17.629L-12.88,0L-10.207,0L-5.052,10.968L0,0L2.673,0L2.673,17.629L0,17.629Z" style="fill:white;fill-rule:nonzero;"/>
                </g>
                <g transform="matrix(1,0,0,1,196.371,177.988)">
                    <path d="M0,-5.467C-0.398,-6.41 -1.289,-7.05 -2.474,-7.05C-3.668,-7.05 -4.585,-6.41 -4.974,-5.467C-5.225,-4.905 -5.277,-4.524 -5.294,-3.763L0.346,-3.763C0.329,-4.524 0.242,-4.905 0,-5.467M-5.294,-1.998C-5.294,0.156 -4.161,1.514 -2.102,1.514C-0.692,1.514 0.052,1.116 0.943,0.225L2.552,1.739C1.263,3.028 0.052,3.694 -2.154,3.694C-5.294,3.694 -7.803,2.033 -7.803,-2.742C-7.803,-6.808 -5.701,-9.161 -2.474,-9.161C0.9,-9.161 2.846,-6.687 2.846,-3.114L2.846,-1.998L-5.294,-1.998Z" style="fill:white;fill-rule:nonzero;"/>
                </g>
                <g transform="matrix(1,0,0,1,218.242,168.825)">
                    <path d="M0,12.707L0,5.052C0,3.097 -1.116,2.257 -2.526,2.257C-3.893,2.257 -5.13,3.122 -5.13,4.93L-5.13,12.707L-7.656,12.707L-7.656,5.052C-7.656,3.097 -8.763,2.257 -10.181,2.257C-11.591,2.257 -12.776,3.122 -12.776,5.052L-12.776,12.707L-15.302,12.707L-15.302,0.155L-12.828,0.155L-12.828,1.418C-11.989,0.501 -10.752,0 -9.489,0C-7.924,0 -6.713,0.623 -5.917,1.842C-4.905,0.605 -3.642,0 -1.981,0C-0.692,0 0.441,0.424 1.194,1.142C2.154,2.084 2.526,3.27 2.526,4.688L2.526,12.707L0,12.707Z" style="fill:white;fill-rule:nonzero;"/>
                </g>
                <g transform="matrix(1,0,0,1,230.674,174.507)">
                    <path d="M0,-3.425C-2.275,-3.425 -2.621,-1.487 -2.621,0.736C-2.621,2.968 -2.275,4.923 0,4.923C2.275,4.923 2.595,2.968 2.595,0.736C2.595,-1.487 2.275,-3.425 0,-3.425M3.711,6.064C3.019,6.756 1.903,7.18 0.64,7.18C-0.718,7.18 -1.739,6.826 -2.673,5.692L-2.673,7.025L-5.156,7.025L-5.156,-10.605L-2.621,-10.605L-2.621,-4.264C-1.704,-5.363 -0.666,-5.683 0.666,-5.683C1.938,-5.683 3.019,-5.259 3.711,-4.558C4.974,-3.295 5.13,-1.167 5.13,0.736C5.13,2.647 4.974,4.801 3.711,6.064" style="fill:white;fill-rule:nonzero;"/>
                </g>
                <g transform="matrix(1,0,0,1,246.749,177.988)">
                    <path d="M0,-5.467C-0.398,-6.41 -1.289,-7.05 -2.474,-7.05C-3.668,-7.05 -4.585,-6.41 -4.983,-5.467C-5.225,-4.905 -5.277,-4.524 -5.303,-3.763L0.346,-3.763C0.329,-4.524 0.242,-4.905 0,-5.467M-5.303,-1.998C-5.303,0.156 -4.161,1.514 -2.111,1.514C-0.701,1.514 0.052,1.116 0.943,0.225L2.552,1.739C1.263,3.028 0.052,3.694 -2.154,3.694C-5.303,3.694 -7.803,2.033 -7.803,-2.742C-7.803,-6.808 -5.701,-9.161 -2.474,-9.161C0.891,-9.161 2.846,-6.687 2.846,-3.114L2.846,-1.998L-5.303,-1.998Z" style="fill:white;fill-rule:nonzero;"/>
                </g>
                <g transform="matrix(1,0,0,1,260.221,178.436)">
                    <path d="M0,-6.513C-0.562,-7.084 -1.012,-7.352 -1.886,-7.352C-3.244,-7.352 -4.386,-6.262 -4.386,-4.532L-4.386,3.097L-6.912,3.097L-6.912,-9.454L-4.438,-9.454L-4.438,-8.096C-3.789,-8.987 -2.5,-9.61 -1.09,-9.61C0.121,-9.61 1.038,-9.29 1.903,-8.416L0,-6.513Z" style="fill:white;fill-rule:nonzero;"/>
                </g>
                <g transform="matrix(1,0,0,1,155.506,195.676)">
                    <path d="M0,-84.383L122.194,-84.383C129.668,-84.383 135.74,-78.31 135.74,-70.845L135.74,-13.546C135.74,-6.081 129.668,-0.008 122.194,-0.008L-73.216,-0.008C-80.681,-0.008 -86.745,-6.081 -86.745,-13.546L-86.745,-70.845C-86.745,-78.31 -80.681,-84.383 -73.216,-84.383L-69.566,-84.383L-67.931,-88.094L-73.216,-88.094C-82.723,-88.094 -90.465,-80.361 -90.465,-70.845L-90.465,-13.546C-90.465,-4.031 -82.723,3.711 -73.216,3.711L122.194,3.711C131.718,3.711 139.451,-4.031 139.451,-13.546L139.451,-70.845C139.451,-80.361 131.718,-88.094 122.194,-88.094L0.64,-88.094L0,-84.383Z" style="fill:white;fill-rule:nonzero;"/>
                </g>
                <g transform="matrix(1,0,0,1,116.094,154.551)">
                    <path d="M0,-37.862C2.119,-37.559 3.953,-36.677 5.415,-35.821C4.879,-33.009 4.464,-30.847 4.316,-29.99C6.436,-29.523 13.555,-27.464 19.896,-25.527C16.202,-24.368 12.257,-23.286 8.339,-22.49C9.507,-19.714 17.586,-4.385 21.678,2.483C26.314,0.165 39.532,-6.634 44.064,-9.636C41.4,-16.081 38.208,-24.774 35.812,-31.175C34.047,-30.527 31.798,-29.653 29.186,-28.701C30.622,-35.215 32.231,-43.64 33.278,-50.362C27.318,-52.844 16.064,-57.005 9.757,-58.268C9.065,-54.635 7.716,-47.689 6.522,-41.547C6.981,-47.957 7.604,-57.213 8.105,-63.121C1.125,-62.965 -7.915,-61.555 -14.515,-59.22C-17.361,-54.54 -23.996,-41.002 -26.807,-32.257C-19.939,-31.963 -5.233,-31.072 0.329,-30.726C0.242,-32.101 0.078,-35.57 0,-37.862M-10.104,-1.332C-6.998,-9.541 -3.633,-18.451 -1.955,-23.338C-4.68,-24.203 -17.958,-28.329 -22.05,-29.679C-25.354,-24.956 -31.219,-12.101 -32.62,-2.924C-28.771,1.583 -21.989,7.474 -14.809,11.194C-14.463,10.234 -14.065,9.196 -13.65,8.08C-8.027,14.152 0.277,21.219 5.38,25.259C9.818,22.318 20.726,13.728 24.878,9.801C19.783,3.919 8.244,-9.965 4.887,-13.953C2.111,-11.34 -4.663,-5.761 -10.104,-1.332" style="fill:white;fill-rule:nonzero;"/>
                </g>
            </g>
        </g>
    </g>
</svg>
