<?xml version="1.0" encoding="UTF-8" standalone="no"?>
<!DOCTYPE svg PUBLIC "-//W3C//DTD SVG 1.1//EN" "http://www.w3.org/Graphics/SVG/1.1/DTD/svg11.dtd">
<svg width="100%" height="100%" viewBox="0 0 1018 458" version="1.1" xmlns="http://www.w3.org/2000/svg" xmlns:xlink="http://www.w3.org/1999/xlink" xml:space="preserve" xmlns:serif="http://www.serif.com/" style="fill-rule:evenodd;clip-rule:evenodd;stroke-linejoin:round;stroke-miterlimit:2;">
    <g id="Artboard1" transform="matrix(1,0,0,1,-242.15,-376.699)">
        <rect x="242.15" y="376.699" width="1017.12" height="457.063" style="fill:none;"/>
        <clipPath id="_clip1">
            <rect x="242.15" y="376.699" width="1017.12" height="457.063"/>
        </clipPath>
        <g clip-path="url(#_clip1)">
            <g id="Layer-1" serif:id="Layer 1" transform="matrix(4.16667,0,0,4.16667,0.150074,0.699167)">
                <g transform="matrix(1,0,0,1,139.131,137.419)">
                    <path d="M0,-3.615L17.854,-3.615C17.811,-4.073 17.569,-4.151 17.422,-4.463L17.422,-4.783L17.318,-4.783L17.318,-4.99L17.214,-4.99L17.214,-5.207L17.006,-5.319L17.006,-5.527L16.894,-5.527L16.894,-5.743L16.79,-5.743L16.79,-5.951L16.678,-5.951L16.678,-6.167L16.574,-6.167C16.539,-6.305 16.505,-6.444 16.47,-6.591L16.366,-6.591C16.332,-6.729 16.297,-6.868 16.254,-7.015L16.15,-7.015L16.15,-7.222L16.046,-7.222L16.046,-7.438L15.942,-7.438L15.942,-7.655L15.83,-7.655L15.83,-7.871L15.726,-7.871L15.726,-8.07L15.622,-8.07L15.622,-8.295L15.51,-8.295L15.51,-8.502L15.406,-8.502L15.406,-8.719L15.302,-8.719L15.302,-8.926L15.199,-8.926L15.199,-9.143L15.086,-9.143L15.086,-9.35L14.982,-9.35L14.982,-9.566L14.878,-9.566L14.878,-9.774L14.775,-9.774L14.775,-9.99L14.662,-9.99C14.593,-10.198 14.524,-10.414 14.446,-10.622L14.342,-10.622C14.308,-10.769 14.273,-10.916 14.238,-11.054L14.135,-11.054C14.1,-11.193 14.065,-11.34 14.022,-11.478L13.918,-11.478L13.918,-11.694L13.814,-11.694L13.814,-11.902L13.711,-11.902L13.711,-12.118L13.598,-12.118L13.598,-12.326L13.494,-12.326L13.494,-12.542L13.391,-12.542L13.391,-12.75L13.278,-12.75L13.278,-12.966L13.174,-12.966L13.174,-13.182L13.071,-13.182L13.071,-13.39L12.967,-13.39L12.967,-13.597L12.854,-13.597L12.854,-13.814C12.785,-13.857 12.716,-13.892 12.647,-13.926L12.647,-14.134L12.543,-14.134L12.543,-14.35L12.43,-14.35L12.43,-14.558L12.327,-14.558L12.327,-14.878L12.214,-14.878L12.214,-15.094L12.11,-15.094L12.11,-15.302L12.007,-15.302L12.007,-15.509L11.903,-15.509L11.903,-15.725L11.79,-15.725L11.79,-15.942L11.687,-15.942L11.687,-16.149C11.617,-16.184 11.548,-16.218 11.47,-16.262C11.41,-16.469 11.332,-16.686 11.263,-16.902L11.159,-16.902C11.116,-17.04 11.081,-17.179 11.055,-17.317L10.943,-17.317C10.908,-17.464 10.873,-17.602 10.839,-17.75L10.735,-17.75C10.7,-17.888 10.666,-18.026 10.623,-18.173L10.519,-18.173L10.519,-18.381L10.415,-18.381L10.415,-18.597L10.302,-18.597L10.302,-18.805L10.199,-18.805L10.199,-19.021L10.095,-19.021C10.026,-19.229 9.956,-19.454 9.879,-19.661L9.775,-19.661C9.706,-19.869 9.628,-20.085 9.559,-20.301L9.455,-20.301L9.455,-20.509C9.273,-20.846 9.031,-21.123 8.927,-21.573C8.806,-21.452 8.884,-21.573 8.823,-21.357L8.711,-21.357C8.676,-21.218 8.642,-21.071 8.607,-20.933L8.503,-20.933L8.503,-20.725L8.391,-20.725L8.391,-20.509L8.287,-20.509L8.287,-20.301L8.183,-20.301L8.183,-20.085L8.079,-20.085L8.079,-19.869L7.967,-19.869C7.898,-19.661 7.828,-19.454 7.759,-19.229L7.647,-19.229C7.612,-19.09 7.578,-18.952 7.543,-18.805L7.439,-18.805C7.405,-18.666 7.37,-18.528 7.327,-18.381L7.223,-18.381L7.223,-18.173L7.119,-18.173L7.119,-17.957L7.007,-17.957L7.007,-17.75L6.903,-17.75L6.903,-17.533L6.799,-17.533L6.799,-17.317L6.695,-17.317C6.626,-17.109 6.548,-16.902 6.479,-16.686C5.259,-14.393 4.1,-11.954 2.863,-9.67L2.863,-9.454L2.759,-9.454C2.725,-9.316 2.69,-9.177 2.656,-9.03L2.552,-9.03L2.552,-8.822L2.439,-8.822L2.439,-8.606L2.336,-8.606L2.336,-8.399L2.232,-8.399L2.232,-8.182L2.128,-8.182C2.085,-8.044 2.05,-7.897 2.015,-7.758L1.912,-7.758C1.877,-7.611 1.842,-7.473 1.808,-7.335L1.695,-7.335C1.661,-7.188 1.626,-7.049 1.592,-6.911L1.488,-6.911C1.453,-6.764 1.41,-6.625 1.384,-6.487L1.272,-6.487L1.272,-6.271L1.168,-6.271L1.168,-6.054L1.064,-6.054L1.064,-5.847L0.951,-5.847L0.951,-5.639L0.848,-5.639C0.779,-5.423 0.709,-5.207 0.631,-4.99L0.536,-4.99L0.536,-4.783C0.329,-4.402 0.069,-4.16 0,-3.615M43.459,-40.803L97.765,-40.803C97.826,-40.569 97.852,-40.534 97.973,-40.379L98.077,-40.379C98.12,-40.275 98.146,-40.171 98.189,-40.059C98.258,-40.024 98.328,-39.989 98.406,-39.955C98.432,-39.816 98.466,-39.669 98.509,-39.531C98.579,-39.496 98.648,-39.462 98.717,-39.427C98.752,-39.28 98.786,-39.142 98.821,-39.003L98.933,-39.003C98.968,-38.856 99.002,-38.718 99.037,-38.579L99.141,-38.579L99.141,-38.259L99.253,-38.259L99.253,-38.043L99.357,-38.043L99.357,-37.723L99.461,-37.723L99.461,-37.299L99.565,-37.299L99.565,-36.555L99.677,-36.555C99.902,-35.759 99.444,-33.753 99.253,-33.26L99.141,-33.26L99.141,-32.939L99.037,-32.939L99.037,-32.732L98.933,-32.732L98.933,-32.412L98.821,-32.412L98.821,-32.196L98.717,-32.196L98.717,-31.988C98.648,-31.953 98.579,-31.919 98.509,-31.884L98.509,-31.668L98.406,-31.668L98.406,-31.452C98.328,-31.417 98.258,-31.382 98.189,-31.348L98.189,-31.132C98.12,-31.097 98.042,-31.062 97.973,-31.028L97.973,-30.82L97.861,-30.82C97.835,-30.742 97.791,-30.673 97.765,-30.604L53.554,-30.604L53.554,30.078C54.393,30.381 55.924,30.173 56.953,30.173L89.47,30.173L89.47,6.48L65.353,6.48C65.275,6.35 65.18,6.333 65.137,6.272L65.137,6.056C65.033,5.995 64.929,5.918 64.817,5.84L64.817,5.632C64.747,5.598 64.678,5.563 64.609,5.52C64.531,5.312 64.462,5.104 64.393,4.888C64.323,4.854 64.254,4.819 64.185,4.784L64.185,4.464C64.116,4.43 64.047,4.395 63.969,4.352C63.9,4.006 63.83,3.651 63.761,3.297L63.649,3.297L63.649,2.873C63.285,1.714 63.64,-0.025 63.969,-0.847L63.969,-1.167L64.081,-1.167C64.116,-1.314 64.15,-1.452 64.185,-1.591L64.289,-1.591L64.289,-1.911C64.358,-1.945 64.427,-1.98 64.505,-2.023L64.505,-2.24C64.817,-2.689 65.137,-3.157 65.457,-3.615L99.677,-3.615L99.677,-3.511C99.452,-3.252 99.565,-1.781 99.565,-1.279L99.565,30.078C100.421,30.381 102.411,30.182 103.501,30.173C103.691,29.663 103.613,28.737 103.613,28.054L103.613,-40.803L152.807,-40.803C152.937,-40.232 153.387,-39.946 153.655,-39.531C153.906,-38.96 154.148,-38.398 154.399,-37.827C154.433,-37.265 154.468,-36.694 154.511,-36.131C154.511,-34.99 154.537,-33.952 154.191,-33.156L154.079,-33.156L154.079,-32.939L153.975,-32.939L153.975,-32.619C153.906,-32.585 153.837,-32.55 153.759,-32.516C153.724,-32.343 153.689,-32.17 153.655,-31.988C153.586,-31.953 153.516,-31.919 153.447,-31.884C153.404,-31.737 153.378,-31.599 153.335,-31.452C153.266,-31.417 153.196,-31.382 153.127,-31.348L153.127,-31.132C153.023,-31.062 152.911,-30.993 152.807,-30.924C152.773,-30.82 152.738,-30.708 152.703,-30.604L113.699,-30.604L113.699,-3.615L132.721,-3.615C132.799,-3.511 132.868,-3.407 132.937,-3.295L133.041,-3.295L133.041,-3.087C133.119,-3.053 133.18,-3.009 133.249,-2.975L133.249,-2.759C133.327,-2.733 133.396,-2.689 133.465,-2.655L133.465,-2.439C133.534,-2.404 133.612,-2.378 133.681,-2.335L133.681,-2.127L133.785,-2.127L133.785,-1.911L133.889,-1.911L133.889,-1.703L133.993,-1.703L133.993,-1.487L134.105,-1.487L134.105,-1.279L134.209,-1.279C134.244,-1.029 134.287,-0.778 134.322,-0.527C134.832,1.013 134.659,2.561 134.105,3.937L134.105,4.248L133.993,4.248C133.932,4.464 133.854,4.672 133.785,4.888L133.681,4.888L133.681,5.104C133.595,5.252 132.816,6.445 132.721,6.48L113.812,6.48C113.604,7.051 113.699,8.072 113.699,8.815L113.699,30.173L152.807,30.173C152.937,30.753 153.387,31.038 153.655,31.453C153.689,31.6 153.724,31.739 153.759,31.886L153.871,31.886C153.94,32.093 154.01,32.301 154.079,32.517L154.191,32.517C154.26,32.837 154.33,33.157 154.399,33.469L154.511,33.469L154.511,35.173C154.511,36.756 154.407,37.457 153.871,38.469C153.837,38.607 153.802,38.754 153.759,38.892C153.689,38.927 153.62,38.962 153.551,38.996C153.473,39.204 153.404,39.42 153.335,39.636C153.266,39.671 153.196,39.706 153.127,39.74L153.127,39.956L153.023,39.956C152.911,40.095 152.807,40.242 152.703,40.38C151.916,40.095 150.489,40.277 149.511,40.277L41.867,40.277L41.867,40.38L40.163,40.38C40.111,40.259 39.973,40.199 39.956,40.173C39.921,39.991 39.886,39.809 39.852,39.636C39.774,39.593 39.705,39.559 39.636,39.533L39.636,39.316L39.532,39.316L39.532,39.1L39.419,39.1L39.419,38.892L39.316,38.892L39.316,38.685L39.212,38.685C39.177,38.538 39.142,38.399 39.108,38.252L38.995,38.252C38.961,38.114 38.926,37.976 38.892,37.837L38.788,37.837L38.788,37.621L38.675,37.621L38.675,37.405L38.572,37.405L38.572,37.197L38.468,37.197L38.468,36.981L38.355,36.981L38.355,36.765L38.252,36.765L38.252,36.557L38.148,36.557L38.148,36.341L38.044,36.341L38.044,36.124L37.931,36.124C37.862,35.917 37.793,35.701 37.724,35.493L37.62,35.493C37.577,35.346 37.542,35.207 37.508,35.069L37.404,35.069C37.369,34.931 37.335,34.784 37.3,34.645L37.188,34.645C37.153,34.498 37.118,34.36 37.084,34.221L36.98,34.221L36.98,34.005L36.876,34.005L36.876,33.789L36.772,33.789L36.772,33.581L36.66,33.581L36.66,33.365L36.556,33.365L36.556,33.157L36.444,33.157L36.444,32.941L36.34,32.941L36.34,32.725L36.236,32.725L36.236,32.517C36.167,32.483 36.089,32.448 36.02,32.413C35.985,32.232 35.951,32.059 35.916,31.886L35.812,31.886C35.743,31.669 35.665,31.453 35.596,31.246L35.492,31.246C35.423,31.029 35.354,30.822 35.276,30.606L35.172,30.606L35.172,30.389L35.068,30.389L35.068,30.173C34.99,30.138 34.921,30.104 34.852,30.078L34.852,29.862L34.748,29.862L34.748,29.645L34.644,29.645L34.644,29.438L34.532,29.438L34.532,29.221L34.428,29.221L34.428,29.005L34.324,29.005C34.255,28.798 34.177,28.59 34.108,28.374L34.004,28.374C33.97,28.235 33.935,28.088 33.9,27.941L33.788,27.941C33.753,27.803 33.719,27.664 33.684,27.526L33.58,27.526C33.546,27.379 33.511,27.232 33.468,27.093L33.364,27.093L33.364,26.886L33.26,26.886L33.26,26.67L33.156,26.67L33.156,26.462L33.044,26.462L33.044,26.246L32.94,26.246L32.94,26.038L32.836,26.038L32.836,25.822L32.724,25.822L32.724,25.614L32.62,25.614L32.62,25.398L32.516,25.398L32.516,25.182L32.413,25.182L32.413,24.974L32.3,24.974L32.3,24.758L32.196,24.758L32.196,24.542L32.093,24.542L32.093,24.334L31.98,24.334C31.911,24.126 31.842,23.91 31.772,23.694L31.669,23.694C31.591,23.486 31.522,23.27 31.452,23.062L31.349,23.062C31.314,22.915 31.279,22.777 31.236,22.63L31.132,22.63C31.098,22.492 31.063,22.353 31.029,22.206L30.925,22.206L30.925,21.99L30.812,21.99L30.812,21.782L30.708,21.782L30.708,21.575L30.605,21.575L30.605,21.358L30.492,21.358L30.492,21.142L30.388,21.142L30.388,20.934L30.285,20.934L30.285,20.718L30.181,20.718L30.181,20.511L30.068,20.511L30.068,20.294L29.965,20.294L29.965,20.078L29.861,20.078L29.861,19.879C29.783,19.836 29.714,19.801 29.644,19.767C29.402,19.161 29.151,18.556 28.901,17.959L28.693,17.855C28.658,17.708 28.624,17.57 28.58,17.431L28.477,17.431L28.477,17.215L28.373,17.215L28.373,16.999L28.269,16.999L28.269,16.791L28.157,16.791L28.157,16.583L28.053,16.583L28.053,16.367L27.949,16.367C27.914,16.22 27.871,16.082 27.837,15.943L27.733,15.943L27.733,15.727L27.629,15.727L27.629,15.511L27.525,15.511L27.525,15.303L27.413,15.303L27.413,15.096L27.309,15.096L27.309,14.879L27.205,14.879C27.127,14.672 27.058,14.455 26.989,14.239L26.885,14.239C26.816,14.032 26.747,13.815 26.669,13.599L26.565,13.599C26.53,13.461 26.496,13.322 26.461,13.175L26.349,13.175C26.314,13.037 26.28,12.89 26.245,12.751L26.141,12.751L26.141,12.535L26.037,12.535L26.037,12.327L25.925,12.327L25.925,12.111L25.821,12.111L25.821,11.904L25.717,11.904L25.717,11.687L25.605,11.687L25.605,11.471L25.501,11.471L25.501,11.263L25.397,11.263L25.397,11.047L25.293,11.047L25.293,10.84L25.181,10.84L25.181,10.623L25.077,10.623L25.077,10.416L24.973,10.416C24.939,10.269 24.904,10.13 24.861,9.992L24.757,9.992L24.757,9.776L24.653,9.776L24.653,9.559L24.549,9.559L24.549,9.352L24.446,9.352L24.446,9.144L24.333,9.144C24.264,8.928 24.195,8.712 24.117,8.504C24.048,8.461 23.979,8.426 23.909,8.392L23.909,8.072L23.806,8.072L23.806,7.864L23.693,7.864L23.693,7.648C23.624,7.613 23.555,7.578 23.485,7.544L23.485,7.336C23.33,7.059 23.148,6.852 23.062,6.48L-5.104,6.48C-5.164,6.618 -5.277,6.627 -5.311,6.696L-5.311,6.912L-5.424,6.912L-5.424,7.12L-5.528,7.12L-5.528,7.336L-5.631,7.336L-5.631,7.544L-5.744,7.544L-5.744,7.751L-5.848,7.751L-5.848,7.968L-5.951,7.968L-5.951,8.184L-6.055,8.184L-6.055,8.392L-6.159,8.392L-6.159,8.608L-6.271,8.608L-6.271,8.815L-6.375,8.815C-6.453,9.032 -6.522,9.248 -6.592,9.456L-6.695,9.456C-6.73,9.603 -6.765,9.741 -6.799,9.879L-6.903,9.879C-6.946,10.026 -6.981,10.165 -7.015,10.303L-7.119,10.303L-7.119,10.52L-7.232,10.52L-7.232,10.727L-7.335,10.727L-7.335,10.943L-7.439,10.943L-7.439,11.16L-7.543,11.16L-7.543,11.367L-7.656,11.367L-7.656,11.584L-7.759,11.584C-7.794,11.731 -7.829,11.869 -7.863,12.007L-7.967,12.007L-7.967,12.224L-8.079,12.224L-8.079,12.431L-8.183,12.431L-8.183,12.648L-8.287,12.648L-8.287,12.855L-8.399,12.855C-8.434,13.002 -8.469,13.141 -8.503,13.279C-9.619,15.364 -10.683,17.587 -11.799,19.663L-11.799,19.879L-11.903,19.879C-11.937,20.018 -11.972,20.156 -12.007,20.294L-12.119,20.294C-12.154,20.441 -12.188,20.58 -12.223,20.718L-12.327,20.718L-12.327,20.934L-12.43,20.934L-12.43,21.142L-12.543,21.142L-12.543,21.358L-12.647,21.358L-12.647,21.575L-12.751,21.575C-12.828,21.782 -12.898,21.99 -12.967,22.206C-14.567,25.199 -16.038,28.365 -17.638,31.349L-17.638,31.557L-17.75,31.557L-17.75,31.773L-17.854,31.773L-17.854,31.99L-17.958,31.99L-17.958,32.197L-18.07,32.197L-18.07,32.413L-18.174,32.413C-18.209,32.552 -18.243,32.69 -18.278,32.837L-18.382,32.837L-18.382,33.045L-18.494,33.045L-18.494,33.261L-18.598,33.261L-18.598,33.469L-18.702,33.469L-18.702,33.685L-18.814,33.685L-18.814,33.901L-18.918,33.901L-18.918,34.109L-19.022,34.109L-19.022,34.325L-19.126,34.325L-19.126,34.533L-19.238,34.533L-19.238,34.749L-19.342,34.749C-19.411,34.965 -19.489,35.173 -19.55,35.38L-19.662,35.38C-19.731,35.597 -19.8,35.804 -19.87,36.021L-19.982,36.021C-20.017,36.168 -20.051,36.306 -20.086,36.453L-20.19,36.453C-20.224,36.591 -20.259,36.73 -20.294,36.868L-20.406,36.868L-20.406,37.085L-20.51,37.085L-20.51,37.301L-20.614,37.301L-20.614,37.508L-20.726,37.508L-20.726,37.725L-20.83,37.725L-20.83,37.932L-20.934,37.932C-20.968,38.079 -21.003,38.218 -21.037,38.365L-21.15,38.365C-21.185,38.503 -21.219,38.642 -21.254,38.789L-21.358,38.789L-21.358,38.996L-21.47,38.996L-21.47,39.204L-21.574,39.204L-21.574,39.42L-21.678,39.42L-21.678,39.636L-21.781,39.636C-21.859,39.775 -21.998,40.32 -22.101,40.38C-23.485,40.346 -24.87,40.311 -26.245,40.277L-79.167,40.277C-79.245,40 -79.332,39.931 -79.487,39.74L-79.591,39.74L-79.591,39.533C-79.66,39.498 -79.738,39.455 -79.807,39.42L-79.807,39.204C-79.877,39.178 -79.946,39.143 -80.015,39.1C-80.058,38.962 -80.084,38.823 -80.128,38.685L-80.231,38.685C-80.301,38.469 -80.37,38.252 -80.448,38.045L-80.551,38.045C-80.621,37.725 -80.69,37.405 -80.759,37.085L-80.871,37.085L-80.871,36.557C-81.356,34.896 -80.508,32.31 -79.911,31.349C-79.842,31.315 -79.773,31.28 -79.695,31.246L-79.695,31.029C-79.487,30.744 -79.28,30.467 -79.064,30.173L-35.605,30.173L-35.605,4.992L-80.975,4.992L-80.975,-40.803L-27.413,-40.803C-27.344,-40.664 -27.274,-40.526 -27.205,-40.379C-27.136,-40.344 -27.067,-40.309 -26.989,-40.275L-26.989,-40.059C-26.885,-39.989 -26.781,-39.92 -26.677,-39.851C-26.608,-39.635 -26.53,-39.427 -26.461,-39.211C-26.392,-39.176 -26.323,-39.142 -26.245,-39.107L-26.245,-38.891L-26.141,-38.891L-26.141,-38.579L-26.037,-38.579L-26.037,-38.363L-25.925,-38.363L-25.925,-38.043L-25.821,-38.043L-25.821,-37.723L-25.717,-37.723L-25.717,-37.299L-25.613,-37.299L-25.613,-36.772L-25.501,-36.772L-25.501,-35.915C-25.501,-34.358 -25.925,-33.303 -26.461,-32.308L-26.461,-32.092L-26.565,-32.092C-26.608,-31.953 -26.634,-31.815 -26.677,-31.668C-26.747,-31.633 -26.816,-31.599 -26.885,-31.564L-26.885,-31.348C-26.954,-31.313 -27.032,-31.279 -27.101,-31.244L-27.101,-31.028C-27.205,-30.959 -27.309,-30.889 -27.413,-30.82C-27.456,-30.742 -27.491,-30.673 -27.525,-30.604L-70.88,-30.604L-70.88,-5.207L-25.397,-5.207L-25.397,24.126C-25.363,24.126 -22.499,18.521 -22.422,18.495C-22.422,18.417 -21.228,15.917 -21.202,15.865C-21.141,15.736 -20.968,15.407 -20.934,15.407C-20.934,15.338 -20.864,15.199 -20.864,15.199C-20.83,15.13 -20.761,14.983 -20.761,14.983C-20.726,14.914 -20.648,14.767 -20.614,14.767C-20.614,14.706 -20.544,14.559 -20.544,14.559C-20.475,14.412 -20.441,14.274 -20.406,14.135C-20.337,14.092 -20.259,14.058 -20.19,14.032L-20.19,13.815L-20.086,13.815C-19.982,13.495 -19.87,13.175 -19.766,12.855L-19.662,12.855L-19.662,12.648L-19.55,12.648L-19.55,12.431L-19.446,12.431L-19.446,12.224L-19.342,12.224L-19.342,12.007C-19.273,11.964 -19.204,11.938 -19.126,11.904L-19.126,11.687L-19.022,11.687L-19.022,11.367L-18.918,11.367L-18.918,11.16L-18.814,11.16L-18.814,10.943L-18.702,10.943L-18.702,10.727L-18.598,10.727L-18.598,10.52L-18.494,10.52C-18.46,10.381 -18.416,10.234 -18.382,10.096C-18.313,10.061 -18.243,10.026 -18.174,9.992L-18.174,9.776L-18.07,9.776L-18.07,9.559L-17.958,9.559L-17.958,9.248L-17.854,9.248C-17.82,9.101 -17.785,8.962 -17.75,8.815L-17.638,8.815C-17.603,8.677 -17.569,8.539 -17.534,8.392L-17.43,8.392L-17.43,8.184L-17.327,8.184L-17.327,7.968C-17.249,7.933 -17.179,7.899 -17.11,7.864C-17.076,7.717 -17.041,7.578 -17.006,7.44L-16.894,7.44L-16.894,7.12L-16.79,7.12C-16.721,6.912 -16.652,6.696 -16.583,6.48L-16.47,6.48L-16.47,6.272L-16.366,6.272C-16.297,6.056 -16.228,5.84 -16.15,5.632C-16.081,5.598 -16.012,5.563 -15.942,5.52L-15.942,5.312L-15.839,5.312L-15.839,4.992L-15.726,4.992C-15.657,4.784 -15.588,4.568 -15.519,4.352L-15.406,4.352L-15.406,4.144L-15.302,4.144C-15.233,3.937 -15.164,3.72 -15.095,3.513C-15.017,3.47 -14.948,3.435 -14.878,3.4C-14.844,3.227 -14.809,3.046 -14.775,2.873L-14.662,2.873C-14.593,2.656 -14.524,2.44 -14.455,2.233L-14.342,2.233L-14.342,2.016L-14.238,2.016C-14.169,1.809 -14.1,1.592 -14.031,1.385C-13.953,1.35 -13.884,1.316 -13.814,1.272L-13.814,0.961L-13.711,0.961L-13.711,0.745L-13.598,0.745L-13.598,0.528L-13.494,0.528C-13.46,0.39 -13.425,0.243 -13.391,0.105L-13.287,0.105L-13.287,-0.103L-13.174,-0.103L-13.174,-0.319L-13.071,-0.319L-13.071,-0.527L-12.967,-0.527L-12.967,-0.743C-12.898,-0.778 -12.828,-0.812 -12.751,-0.847L-12.751,-1.063L-12.647,-1.063L-12.647,-1.383L-12.543,-1.383L-12.543,-1.591L-12.43,-1.591L-12.43,-1.807L-12.327,-1.807L-12.327,-2.023L-12.223,-2.023L-12.223,-2.24L-12.119,-2.24L-12.119,-2.439L-12.007,-2.439C-11.972,-2.586 -11.937,-2.733 -11.903,-2.871C-11.834,-2.906 -11.764,-2.94 -11.687,-2.975L-11.687,-3.191L-11.583,-3.191L-11.583,-3.511L-11.479,-3.511C-11.41,-3.719 -11.332,-3.935 -11.263,-4.143L-11.159,-4.143L-11.159,-4.359L-11.055,-4.359C-10.977,-4.567 -10.908,-4.783 -10.839,-4.99C-10.77,-5.025 -10.7,-5.068 -10.631,-5.103L-10.631,-5.319L-10.519,-5.319L-10.519,-5.639L-10.415,-5.639L-10.415,-5.847L-10.311,-5.847L-10.311,-6.054L-10.207,-6.054L-10.207,-6.271L-10.095,-6.271L-10.095,-6.487L-9.991,-6.487L-9.991,-6.694L-9.887,-6.694C-9.809,-6.911 -9.74,-7.118 -9.671,-7.335C-9.602,-7.369 -9.533,-7.404 -9.455,-7.438L-9.455,-7.758L-9.351,-7.758L-9.351,-7.966L-9.247,-7.966L-9.247,-8.182L-9.143,-8.182L-9.143,-8.399L-9.031,-8.399L-9.031,-8.606L-8.927,-8.606L-8.927,-8.822L-8.823,-8.822C-8.754,-9.03 -8.676,-9.246 -8.607,-9.454C-8.538,-9.489 -8.469,-9.532 -8.399,-9.566L-8.399,-9.886L-8.287,-9.886L-8.287,-10.094L-8.183,-10.094L-8.183,-10.302L-8.079,-10.302L-8.079,-10.518L-7.967,-10.518L-7.967,-10.734L-7.863,-10.734C-7.794,-10.942 -7.725,-11.158 -7.656,-11.374C-7.578,-11.409 -7.508,-11.443 -7.439,-11.478L-7.439,-11.694L-7.335,-11.694L-7.335,-12.006L-7.232,-12.006C-7.154,-12.222 -7.085,-12.43 -7.015,-12.646L-6.903,-12.646L-6.903,-12.862L-6.799,-12.862C-6.73,-13.07 -6.661,-13.277 -6.592,-13.494C-6.522,-13.537 -6.453,-13.571 -6.375,-13.597C-6.341,-13.779 -6.306,-13.952 -6.271,-14.134L-6.159,-14.134C-6.133,-14.272 -6.098,-14.419 -6.055,-14.558L-5.951,-14.558C-5.917,-14.696 -5.882,-14.843 -5.848,-14.981L-5.744,-14.981L-5.744,-15.198L-5.631,-15.198L-5.631,-15.414L-5.528,-15.414L-5.528,-15.622L-5.424,-15.622L-5.424,-15.829C-5.346,-15.864 -5.277,-15.907 -5.208,-15.942L-5.208,-16.262L-5.104,-16.262L-5.104,-16.469L-5,-16.469C-4.957,-16.616 -4.922,-16.755 -4.887,-16.902L-4.784,-16.902C-4.749,-17.04 -4.714,-17.179 -4.68,-17.317L-4.567,-17.317C-4.533,-17.464 -4.498,-17.602 -4.464,-17.75L-4.36,-17.75L-4.36,-17.957L-4.256,-17.957L-4.256,-18.173L-4.144,-18.173L-4.144,-18.381L-4.04,-18.381L-4.04,-18.597L-3.936,-18.597L-3.936,-18.805L-3.823,-18.805L-3.823,-19.021L-3.72,-19.021L-3.72,-19.229L-3.616,-19.229L-3.616,-19.454L-3.512,-19.454L-3.512,-19.661L-3.4,-19.661L-3.4,-19.869L-3.296,-19.869L-3.296,-20.085C-3.227,-20.12 -3.157,-20.154 -3.08,-20.189L-3.08,-20.509L-2.976,-20.509L-2.976,-20.725L-2.872,-20.725L-2.872,-20.933L-2.768,-20.933L-2.768,-21.149L-2.656,-21.149L-2.656,-21.357L-2.552,-21.357L-2.552,-21.573L-2.448,-21.573C-2.37,-21.789 -2.301,-21.997 -2.232,-22.213C-2.163,-22.239 -2.093,-22.282 -2.024,-22.317L-2.024,-22.628L-1.912,-22.628L-1.912,-22.845L-1.808,-22.845L-1.808,-23.061L-1.704,-23.061L-1.704,-23.268L-1.6,-23.268L-1.6,-23.485L-1.488,-23.485L-1.488,-23.701L-1.384,-23.701C-1.315,-23.909 -1.246,-24.125 -1.168,-24.332C-1.099,-24.367 -1.029,-24.402 -0.96,-24.445L-0.96,-24.756L-0.848,-24.756L-0.848,-24.973L-0.744,-24.973L-0.744,-25.189L-0.64,-25.189L-0.64,-25.396L-0.536,-25.396L-0.536,-25.604L-0.424,-25.604L-0.424,-25.82L-0.32,-25.82L-0.32,-26.037L-0.216,-26.037L-0.216,-26.244L-0.112,-26.244L-0.112,-26.46L0,-26.46L0,-26.677L0.104,-26.677L0.104,-26.884L0.208,-26.884L0.208,-27.101L0.32,-27.101C0.389,-27.308 0.458,-27.524 0.536,-27.732L0.631,-27.732C0.675,-27.879 0.709,-28.017 0.744,-28.164L0.848,-28.164C0.882,-28.303 0.917,-28.441 0.951,-28.58L1.064,-28.58L1.064,-28.796L1.168,-28.796L1.168,-29.012L1.272,-29.012L1.272,-29.22L1.384,-29.22L1.384,-29.436L1.488,-29.436L1.488,-29.652L1.592,-29.652L1.592,-29.86L1.695,-29.86L1.695,-30.076L1.808,-30.076L1.808,-30.284L1.912,-30.284L1.912,-30.5L2.015,-30.5L2.015,-30.708L2.128,-30.708L2.128,-30.924L2.232,-30.924C2.266,-31.062 2.301,-31.209 2.336,-31.348L2.439,-31.348L2.439,-31.564L2.552,-31.564L2.552,-31.772L2.656,-31.772L2.656,-31.988L2.759,-31.988L2.759,-32.196L2.863,-32.196C2.941,-32.412 3.01,-32.619 3.079,-32.836C3.149,-32.87 3.218,-32.905 3.296,-32.939L3.296,-33.26L3.4,-33.26L3.4,-33.476L3.503,-33.476L3.503,-33.692L3.616,-33.692L3.616,-33.9L3.72,-33.9L3.72,-34.116L3.823,-34.116L3.823,-34.323L3.927,-34.323L3.927,-34.54L4.04,-34.54C4.109,-34.747 4.178,-34.964 4.247,-35.171L4.36,-35.171C4.429,-35.387 4.498,-35.604 4.567,-35.811L4.671,-35.811C4.714,-35.95 4.74,-36.097 4.784,-36.235L4.887,-36.235C4.922,-36.382 4.957,-36.521 4.991,-36.659L5.095,-36.659L5.095,-36.875L5.207,-36.875L5.207,-37.083L5.311,-37.083L5.311,-37.299L5.424,-37.299L5.424,-37.507L5.519,-37.507L5.519,-37.723L5.631,-37.723L5.631,-37.939L5.735,-37.939L5.735,-38.147L5.839,-38.147L5.839,-38.363L5.951,-38.363L5.951,-38.579L6.055,-38.579L6.055,-38.787C6.963,-40.474 7.898,-42.23 8.711,-43.995C8.832,-43.873 8.754,-43.995 8.823,-43.778L8.927,-43.778C8.962,-43.64 8.996,-43.501 9.031,-43.354L9.135,-43.354L9.135,-43.147L9.247,-43.147L9.247,-42.931L9.351,-42.931L9.351,-42.723L9.455,-42.723L9.455,-42.507L9.559,-42.507L9.559,-42.29L9.671,-42.29C9.74,-42.083 9.809,-41.867 9.879,-41.659L9.991,-41.659C10.026,-41.512 10.06,-41.373 10.095,-41.226L10.199,-41.226C10.233,-41.088 10.268,-40.95 10.302,-40.803L10.415,-40.803C10.449,-40.664 10.484,-40.526 10.519,-40.379L10.623,-40.379L10.623,-40.171L10.735,-40.171L10.735,-39.955L10.839,-39.955L10.839,-39.739L10.943,-39.739L10.943,-39.531L11.055,-39.531L11.055,-39.315L11.159,-39.315L11.159,-39.107L11.263,-39.107L11.263,-38.891L11.375,-38.891L11.375,-38.683L11.47,-38.683L11.47,-38.467C11.548,-38.432 11.617,-38.398 11.687,-38.363L11.687,-38.147L11.79,-38.147L11.79,-37.939L11.903,-37.939L11.903,-37.723L12.007,-37.723L12.007,-37.507L12.11,-37.507L12.11,-37.299L12.214,-37.299C12.292,-37.083 12.361,-36.875 12.43,-36.659L12.543,-36.659C12.612,-36.451 12.681,-36.235 12.751,-36.028L12.854,-36.028C12.889,-35.881 12.923,-35.742 12.967,-35.604L13.071,-35.604C13.105,-35.457 13.14,-35.318 13.174,-35.171L13.278,-35.171L13.278,-34.964L13.391,-34.964L13.391,-34.747L13.494,-34.747L13.494,-34.54L13.598,-34.54L13.598,-34.323L13.711,-34.323L13.711,-34.116L13.814,-34.116L13.814,-33.9L13.918,-33.9L13.918,-33.692L14.022,-33.692L14.022,-33.476C15.389,-30.924 16.695,-28.268 18.062,-25.716C18.096,-25.578 18.131,-25.431 18.174,-25.293L18.278,-25.293C18.313,-25.146 18.347,-25.007 18.382,-24.869L18.486,-24.869C18.529,-24.722 18.555,-24.583 18.598,-24.445L18.702,-24.445L18.702,-24.229L18.806,-24.229L18.806,-24.021L18.909,-24.021L18.909,-23.805L19.022,-23.805L19.022,-23.588L19.126,-23.588L19.126,-23.381L19.23,-23.381C19.307,-23.165 19.377,-22.948 19.446,-22.741L19.55,-22.741L19.55,-22.525L19.653,-22.525L19.653,-22.317L19.766,-22.317L19.766,-22.101L19.87,-22.101C19.904,-21.962 19.939,-21.815 19.982,-21.677C20.051,-21.642 20.121,-21.608 20.19,-21.573C20.259,-21.357 20.328,-21.149 20.406,-20.933L20.51,-20.933C20.579,-20.725 20.648,-20.509 20.717,-20.301L20.83,-20.301C20.864,-20.154 20.899,-20.016 20.934,-19.869L21.037,-19.869C21.072,-19.73 21.115,-19.583 21.141,-19.454L21.254,-19.454L21.254,-19.229L21.357,-19.229L21.357,-19.021L21.461,-19.021L21.461,-18.805L21.574,-18.805L21.574,-18.597L21.678,-18.597C21.747,-18.381 21.816,-18.173 21.885,-17.957L21.998,-17.957C22.067,-17.75 22.136,-17.533 22.214,-17.317L22.318,-17.317C22.387,-17.109 22.456,-16.902 22.525,-16.686L22.638,-16.686C22.664,-16.547 22.707,-16.4 22.742,-16.262L22.845,-16.262C22.88,-16.115 22.915,-15.976 22.949,-15.829L23.062,-15.829L23.062,-15.622L23.165,-15.622L23.165,-15.414L23.269,-15.414L23.269,-15.198L23.373,-15.198L23.373,-14.981L23.485,-14.981L23.485,-14.774L23.589,-14.774L23.589,-14.558L23.693,-14.558L23.693,-14.35L23.806,-14.35L23.806,-14.134L23.909,-14.134L23.909,-13.926L24.013,-13.926L24.013,-13.701L24.117,-13.701L24.117,-13.494L24.229,-13.494L24.229,-13.277C24.299,-13.243 24.368,-13.217 24.446,-13.182C24.472,-13.035 24.515,-12.897 24.549,-12.75L24.653,-12.75L24.653,-12.542L24.757,-12.542C24.826,-12.326 24.904,-12.118 24.973,-11.902L25.077,-11.902C25.112,-11.729 25.146,-11.547 25.181,-11.374C25.259,-11.34 25.328,-11.296 25.397,-11.27C25.432,-11.123 25.466,-10.976 25.501,-10.847L25.605,-10.847L25.605,-10.622L25.717,-10.622L25.717,-10.414L25.821,-10.414L25.821,-10.198L25.925,-10.198C25.959,-10.059 25.994,-9.921 26.037,-9.774L26.141,-9.774C26.176,-9.636 26.21,-9.489 26.245,-9.35L26.349,-9.35C26.383,-9.212 26.427,-9.073 26.461,-8.926L26.565,-8.926C26.6,-8.788 26.634,-8.649 26.669,-8.502L26.781,-8.502L26.781,-8.295L26.885,-8.295L26.885,-8.07L26.989,-8.07L26.989,-7.871L27.093,-7.871L27.093,-7.655L27.205,-7.655C27.274,-7.438 27.344,-7.222 27.413,-7.015L27.525,-7.015L27.525,-6.798L27.629,-6.798L27.629,-6.591L27.733,-6.591L27.733,-6.374C27.802,-6.34 27.871,-6.305 27.949,-6.271L27.949,-6.054L28.053,-6.054L28.053,-5.743L28.157,-5.743C28.226,-5.527 28.304,-5.319 28.373,-5.103L28.477,-5.103L28.477,-4.887L28.58,-4.887C28.658,-4.67 28.728,-4.463 28.797,-4.246C28.866,-4.212 28.935,-4.177 29.013,-4.143C29.048,-4.004 29.082,-3.857 29.117,-3.719L29.221,-3.719C29.255,-3.58 29.29,-3.433 29.324,-3.295L29.437,-3.295L29.437,-2.975C29.506,-2.94 29.575,-2.906 29.644,-2.871L29.644,-2.655L29.757,-2.655L29.757,-2.439L29.861,-2.439L29.861,-2.24L29.965,-2.24L29.965,-2.023L30.068,-2.023L30.068,-1.807L30.181,-1.807L30.181,-1.591L30.285,-1.591L30.285,-1.383L30.388,-1.383C30.423,-1.236 30.458,-1.098 30.492,-0.959L30.605,-0.959C30.674,-0.743 30.743,-0.527 30.812,-0.319L30.925,-0.319C30.994,-0.103 31.063,0.105 31.132,0.321L31.236,0.321C31.279,0.459 31.314,0.606 31.349,0.745L31.452,0.745C31.487,0.883 31.522,1.03 31.556,1.169L31.669,1.169L31.669,1.385L31.772,1.385L31.772,1.592L31.876,1.592L31.876,1.809L31.98,1.809L31.98,2.016L32.093,2.016L32.093,2.233L32.196,2.233L32.196,2.44L32.3,2.44L32.3,2.656L32.413,2.656L32.413,2.873L32.516,2.873L32.516,3.08L32.62,3.08L32.62,3.297L32.724,3.297L32.724,3.513L32.836,3.513L32.836,3.72C32.906,3.755 32.975,3.79 33.044,3.833C33.087,3.963 33.122,4.11 33.156,4.248L33.26,4.248L33.26,4.464L33.364,4.464L33.364,4.672L33.468,4.672L33.468,4.888L33.58,4.888L33.58,5.208C33.65,5.243 33.719,5.278 33.788,5.312L33.788,5.52L33.9,5.52L33.9,5.736L34.004,5.736L34.004,5.952L34.108,5.952L34.108,6.168L34.212,6.168L34.212,6.376L34.324,6.376L34.324,6.592L34.428,6.592L34.428,6.8L34.532,6.8L34.532,7.016L34.644,7.016L34.644,7.224L34.748,7.224L34.748,7.44L34.852,7.44L34.852,7.648L34.956,7.648C35.034,7.864 35.103,8.072 35.172,8.288L35.276,8.288C35.354,8.504 35.423,8.72 35.492,8.928L35.596,8.928C35.63,9.066 35.665,9.213 35.7,9.352L35.812,9.352C35.847,9.499 35.881,9.637 35.916,9.776L36.02,9.776L36.02,9.992L36.124,9.992L36.124,10.199L36.236,10.199L36.236,10.416L36.34,10.416L36.34,10.623L36.444,10.623L36.444,10.84L36.556,10.84L36.556,11.047L36.66,11.047L36.66,11.263L36.772,11.263L36.772,11.471L36.876,11.471L36.876,11.687L36.98,11.687L36.98,11.904L37.084,11.904L37.084,12.111C37.153,12.154 37.222,12.18 37.3,12.224C37.335,12.362 37.369,12.5 37.404,12.648L37.508,12.648L37.508,12.855L37.62,12.855C37.689,13.071 37.758,13.279 37.828,13.495L37.931,13.495L37.931,13.815L38.044,13.815L38.044,14.032L38.148,14.032L38.148,14.239C38.217,14.274 38.286,14.308 38.355,14.352L38.355,14.559L38.468,14.559L38.468,14.767L38.572,14.767L38.572,14.983L38.675,14.983L38.675,15.199L38.788,15.199L38.788,15.407L38.892,15.407C38.961,15.623 39.03,15.831 39.108,16.047L39.212,16.047C39.246,16.185 39.281,16.324 39.316,16.471L39.419,16.471C39.454,16.609 39.497,16.756 39.532,16.895L39.636,16.895L39.636,17.111L39.739,17.111L39.739,17.319L39.852,17.319L39.852,17.535L39.956,17.535L39.956,17.751L40.059,17.751L40.059,17.959L40.163,17.959L40.163,18.175L40.276,18.175L40.276,18.383L40.38,18.383L40.38,18.599L40.483,18.599L40.483,18.807L40.587,18.807L40.587,19.023L40.7,19.023L40.7,19.23C40.769,19.265 40.838,19.308 40.907,19.334L40.907,19.663L41.02,19.663L41.02,19.879L41.123,19.879L41.123,20.078L41.227,20.078L41.227,20.294L41.331,20.294C41.374,20.441 41.409,20.58 41.443,20.718C41.513,20.753 41.582,20.796 41.66,20.831C41.72,21.038 41.798,21.255 41.867,21.462L41.971,21.462L41.971,21.678L42.075,21.678L42.075,21.886L42.187,21.886L42.187,22.102L42.291,22.102L42.291,22.31L42.395,22.31L42.395,22.63C42.464,22.665 42.533,22.708 42.611,22.742C42.646,22.881 42.68,23.019 42.715,23.166L42.827,23.166L42.827,23.383L42.931,23.383L42.931,23.59L43.035,23.59C43.156,23.824 43.243,24.109 43.355,24.334L43.459,24.334L43.459,-40.803" style="fill:white;"/>
                </g>
                <g transform="matrix(1,0,0,1,297.459,94.3608)">
                    <path d="M0,-0.398L0.804,-0.398C1.194,-0.398 1.453,-0.459 1.592,-0.571C1.739,-0.683 1.808,-0.83 1.808,-1.012C1.808,-1.142 1.773,-1.246 1.704,-1.341C1.635,-1.436 1.54,-1.505 1.427,-1.548C1.306,-1.6 1.081,-1.618 0.753,-1.618L0,-1.618L0,-0.398ZM-0.649,1.868L-0.649,-2.171L0.744,-2.171C1.22,-2.171 1.566,-2.137 1.782,-2.059C1.99,-1.981 2.163,-1.851 2.284,-1.67C2.413,-1.479 2.474,-1.28 2.474,-1.073C2.474,-0.779 2.37,-0.519 2.163,-0.303C1.946,-0.078 1.669,0.035 1.315,0.069C1.453,0.13 1.574,0.199 1.661,0.277C1.817,0.441 2.024,0.709 2.258,1.081L2.751,1.868L1.964,1.868L1.6,1.237C1.315,0.735 1.09,0.424 0.917,0.294C0.796,0.199 0.614,0.156 0.389,0.156L0,0.156L0,1.868L-0.649,1.868ZM1.003,-3.339C0.467,-3.339 -0.043,-3.201 -0.545,-2.933C-1.047,-2.656 -1.445,-2.275 -1.721,-1.773C-2.007,-1.272 -2.154,-0.744 -2.154,-0.199C-2.154,0.346 -2.016,0.865 -1.73,1.358C-1.453,1.86 -1.064,2.24 -0.562,2.517C-0.069,2.803 0.458,2.941 1.003,2.941C1.548,2.941 2.067,2.803 2.56,2.517C3.062,2.24 3.451,1.86 3.728,1.358C4.005,0.865 4.143,0.346 4.143,-0.199C4.143,-0.744 4.005,-1.272 3.72,-1.773C3.443,-2.275 3.054,-2.656 2.543,-2.933C2.041,-3.201 1.522,-3.339 1.003,-3.339M1.003,-3.953C1.635,-3.953 2.249,-3.798 2.855,-3.469C3.46,-3.149 3.927,-2.69 4.265,-2.085C4.593,-1.479 4.766,-0.848 4.766,-0.199C4.766,0.45 4.602,1.073 4.265,1.669C3.936,2.266 3.477,2.733 2.872,3.062C2.275,3.391 1.652,3.555 1.003,3.555C0.346,3.555 -0.277,3.391 -0.874,3.062C-1.471,2.733 -1.938,2.266 -2.266,1.669C-2.604,1.073 -2.768,0.45 -2.768,-0.199C-2.768,-0.848 -2.604,-1.479 -2.266,-2.085C-1.92,-2.69 -1.453,-3.149 -0.848,-3.469C-0.251,-3.798 0.372,-3.953 1.003,-3.953" style="fill:white;fill-rule:nonzero;"/>
                </g>
                <g transform="matrix(1,0,0,1,72.9493,189.433)">
                    <path d="M0,6.246C0,7.976 -0.484,9.152 -1.453,9.758C-2.422,10.364 -4.187,10.666 -6.73,10.666C-10.043,10.666 -12.154,10.389 -13.062,9.81C-13.962,9.248 -14.411,7.916 -14.411,5.831L-11.02,5.831C-11.02,6.955 -10.813,7.665 -10.398,7.95C-9.982,8.244 -8.936,8.383 -7.258,8.383C-5.727,8.383 -4.706,8.236 -4.195,7.95C-3.685,7.656 -3.426,7.05 -3.426,6.125C-3.426,5.381 -3.642,4.871 -4.074,4.594C-4.498,4.326 -5.363,4.187 -6.669,4.187C-9.143,4.187 -10.813,4.049 -11.669,3.763C-13.434,3.184 -14.316,1.93 -14.316,-0.008C-14.316,-1.617 -13.901,-2.733 -13.071,-3.356C-12.128,-4.065 -10.32,-4.42 -7.647,-4.42C-4.688,-4.42 -2.751,-4.134 -1.808,-3.572C-0.874,-3.01 -0.407,-1.807 -0.407,0.052L-3.832,0.052C-3.832,-0.951 -3.996,-1.548 -4.342,-1.755C-4.68,-1.963 -5.804,-2.067 -7.707,-2.067C-8.901,-2.067 -9.74,-1.937 -10.207,-1.686C-10.683,-1.435 -10.917,-0.925 -10.917,-0.155C-10.917,0.693 -10.726,1.22 -10.346,1.445C-9.853,1.722 -8.694,1.869 -6.86,1.869C-4.048,1.869 -2.24,2.085 -1.445,2.535C-0.484,3.063 0,4.3 0,6.246" style="fill:white;fill-rule:nonzero;"/>
                </g>
                <g transform="matrix(1,0,0,1,90.0466,189.48)">
                    <path d="M0,6.289C0,8.019 -0.588,9.196 -1.756,9.801C-2.803,10.346 -4.758,10.623 -7.621,10.623C-10.147,10.623 -11.911,10.381 -12.906,9.888C-14.178,9.265 -14.818,8.036 -14.818,6.203L-14.818,-4.334L-11.392,-4.334L-11.392,6.436C-11.392,7.076 -11.142,7.517 -10.657,7.777C-10.164,8.036 -9.169,8.166 -7.656,8.166C-5.83,8.166 -4.688,8.062 -4.23,7.837C-3.694,7.569 -3.426,6.929 -3.426,5.908L-3.426,-4.334L0,-4.334L0,6.289Z" style="fill:white;fill-rule:nonzero;"/>
                </g>
                <g transform="matrix(1,0,0,1,103.71,194.849)">
                    <path d="M0,-4.541C0,-5.64 -0.19,-6.358 -0.58,-6.712C-0.96,-7.067 -1.782,-7.249 -3.019,-7.249L-7.422,-7.249L-7.422,-2.102L-3.114,-2.102C-1.687,-2.102 -0.779,-2.318 -0.381,-2.75C-0.13,-3.01 0,-3.615 0,-4.541M3.356,-4.679C3.356,-2.776 2.967,-1.47 2.18,-0.744C1.401,-0.017 -0.069,0.346 -2.214,0.346L-7.422,0.346L-7.422,5.156L-10.856,5.156L-10.856,-9.697L-3.054,-9.697C-0.675,-9.697 0.917,-9.454 1.713,-8.961C2.811,-8.295 3.356,-6.868 3.356,-4.679" style="fill:white;fill-rule:nonzero;"/>
                </g>
                <g transform="matrix(1,0,0,1,119.953,194.849)">
                    <path d="M0,-4.541C0,-5.64 -0.19,-6.358 -0.58,-6.712C-0.96,-7.067 -1.782,-7.249 -3.019,-7.249L-7.422,-7.249L-7.422,-2.102L-3.114,-2.102C-1.687,-2.102 -0.779,-2.318 -0.381,-2.75C-0.13,-3.01 0,-3.615 0,-4.541M3.356,-4.679C3.356,-2.776 2.967,-1.47 2.18,-0.744C1.401,-0.017 -0.069,0.346 -2.214,0.346L-7.422,0.346L-7.422,5.156L-10.856,5.156L-10.856,-9.697L-3.054,-9.697C-0.675,-9.697 0.917,-9.454 1.713,-8.961C2.811,-8.295 3.356,-6.868 3.356,-4.679" style="fill:white;fill-rule:nonzero;"/>
                </g>
                <g transform="matrix(1,0,0,1,137.338,185.148)">
                    <path d="M0,14.853L-11.756,14.853L-11.756,0L-8.33,0L-8.33,12.431L0,12.431L0,14.853Z" style="fill:white;fill-rule:nonzero;"/>
                </g>
                <g transform="matrix(-1,0,0,1,281.3,25.155)">
                    <rect x="138.937" y="159.996" width="3.426" height="14.853" style="fill:white;"/>
                </g>
                <g transform="matrix(1,0,0,1,157.464,185.148)">
                    <path d="M0,14.853L-12.258,14.853L-12.258,0L-0.026,0L-0.026,2.457L-8.832,2.457L-8.832,6.151L-0.484,6.151L-0.484,8.469L-8.832,8.469L-8.832,12.431L0,12.431L0,14.853Z" style="fill:white;fill-rule:nonzero;"/>
                </g>
                <g transform="matrix(1,0,0,1,171.094,195.124)">
                    <path d="M0,-5.095C0,-6.15 -0.164,-6.816 -0.493,-7.093C-0.813,-7.379 -1.592,-7.517 -2.82,-7.517L-7.63,-7.517L-7.63,-2.448L-2.734,-2.448C-1.67,-2.448 -0.943,-2.621 -0.571,-2.967C-0.19,-3.322 0,-4.022 0,-5.095M3.425,-5.562C3.425,-4.126 3.244,-3.14 2.88,-2.604C2.465,-1.964 1.6,-1.54 0.285,-1.341C1.332,-1.202 2.067,-0.926 2.483,-0.51C3.002,0.009 3.261,0.891 3.261,2.137L3.261,4.879L-0.164,4.879L-0.164,2.647C-0.164,1.566 -0.32,0.856 -0.614,0.528C-0.952,0.156 -1.704,-0.026 -2.881,-0.026L-7.63,-0.026L-7.63,4.879L-11.055,4.879L-11.055,-9.974L-2.327,-9.974C-0.182,-9.974 1.315,-9.636 2.163,-8.97C3.002,-8.304 3.425,-7.171 3.425,-5.562" style="fill:white;fill-rule:nonzero;"/>
                </g>
                <g transform="matrix(1,0,0,1,206.322,185.148)">
                    <path d="M0,14.853L-3.123,14.853L-3.123,2.319L-3.235,2.319L-8.823,14.853L-11.86,14.853L-17.517,2.388L-17.603,2.388L-17.603,14.853L-20.761,14.853L-20.761,0L-15.242,0L-10.424,11.021L-10.337,11.021L-5.588,0L0,0L0,14.853Z" style="fill:white;fill-rule:nonzero;"/>
                </g>
                <g transform="matrix(1,0,0,1,221.461,185.148)">
                    <path d="M0,14.853L-12.258,14.853L-12.258,0L-0.026,0L-0.026,2.457L-8.832,2.457L-8.832,6.151L-0.484,6.151L-0.484,8.469L-8.832,8.469L-8.832,12.431L0,12.431L0,14.853Z" style="fill:white;fill-rule:nonzero;"/>
                </g>
                <g transform="matrix(1,0,0,1,244.867,185.148)">
                    <path d="M0,14.853L-3.123,14.853L-3.123,2.319L-3.235,2.319L-8.823,14.853L-11.86,14.853L-17.517,2.388L-17.603,2.388L-17.603,14.853L-20.761,14.853L-20.761,0L-15.242,0L-10.424,11.021L-10.337,11.021L-5.588,0L0,0L0,14.853Z" style="fill:white;fill-rule:nonzero;"/>
                </g>
                <g transform="matrix(1,0,0,1,259.068,189.503)">
                    <path d="M0,6.142C0,5.294 -0.156,4.732 -0.476,4.464C-0.796,4.187 -1.453,4.049 -2.431,4.049L-7.725,4.049L-7.725,8.08L-2.604,8.08C-1.609,8.08 -0.926,7.95 -0.562,7.69C-0.19,7.431 0,6.912 0,6.142M-0.467,-0.207C-0.467,-0.891 -0.597,-1.323 -0.848,-1.522C-1.168,-1.773 -1.894,-1.903 -3.019,-1.903L-7.725,-1.903L-7.725,1.86L-3.062,1.86C-2.059,1.86 -1.375,1.722 -1.012,1.428C-0.649,1.142 -0.467,0.597 -0.467,-0.207M3.425,6.358C3.425,7.829 3.071,8.867 2.361,9.472C1.557,10.156 0.147,10.493 -1.877,10.493L-11.124,10.493L-11.124,-4.351L-2.206,-4.351C-0.216,-4.351 1.142,-4.065 1.868,-3.503C2.595,-2.941 2.958,-1.937 2.958,-0.501C2.958,0.545 2.777,1.298 2.422,1.782C2.067,2.267 1.401,2.613 0.424,2.82C1.609,2.959 2.422,3.322 2.863,3.936C3.244,4.421 3.425,5.234 3.425,6.358" style="fill:white;fill-rule:nonzero;"/>
                </g>
                <g transform="matrix(1,0,0,1,276.981,185.148)">
                    <path d="M0,14.853L-12.258,14.853L-12.258,0L-0.026,0L-0.026,2.457L-8.832,2.457L-8.832,6.151L-0.493,6.151L-0.493,8.469L-8.832,8.469L-8.832,12.431L0,12.431L0,14.853Z" style="fill:white;fill-rule:nonzero;"/>
                </g>
                <g transform="matrix(1,0,0,1,290.609,195.124)">
                    <path d="M0,-5.095C0,-6.15 -0.164,-6.816 -0.493,-7.093C-0.813,-7.379 -1.592,-7.517 -2.82,-7.517L-7.63,-7.517L-7.63,-2.448L-2.733,-2.448C-1.669,-2.448 -0.943,-2.621 -0.571,-2.967C-0.19,-3.322 0,-4.022 0,-5.095M3.425,-5.562C3.425,-4.126 3.244,-3.14 2.88,-2.604C2.465,-1.964 1.6,-1.54 0.285,-1.341C1.332,-1.202 2.067,-0.926 2.483,-0.51C3.002,0.009 3.261,0.891 3.261,2.137L3.261,4.879L-0.164,4.879L-0.164,2.647C-0.164,1.566 -0.32,0.856 -0.614,0.528C-0.952,0.156 -1.704,-0.026 -2.872,-0.026L-7.63,-0.026L-7.63,4.879L-11.055,4.879L-11.055,-9.974L-2.327,-9.974C-0.182,-9.974 1.315,-9.636 2.163,-8.97C3.002,-8.304 3.425,-7.171 3.425,-5.562" style="fill:white;fill-rule:nonzero;"/>
                </g>
            </g>
        </g>
    </g>
</svg>
